<?xml version="1.0" standalone="no"?>
<!DOCTYPE svg PUBLIC "-//W3C//DTD SVG 1.1//EN" "http://www.w3.org/Graphics/SVG/1.1/DTD/svg11.dtd" >
<svg xmlns="http://www.w3.org/2000/svg" xmlns:xlink="http://www.w3.org/1999/xlink" version="1.1">
<metadata>
Created by FontForge 20170910 at Tue Aug 19 23:37:05 2003
 By Jimmy Wärting
08/03 Luz, HP New Futura   The Hoefler Type Foundry, 1998-2003.
</metadata>
<defs>
<font id="LuzSans-MediumItalic" horiz-adv-x="239" >
  <font-face 
    font-family="LuzSans-MediumItalic"
    font-weight="400"
    font-style="italic"
    font-stretch="normal"
    units-per-em="1000"
    panose-1="2 0 6 3 4 0 0 9 0 3"
    ascent="800"
    descent="-200"
    x-height="493"
    cap-height="754"
    bbox="-135 -282 1155 994"
    underline-thickness="98"
    underline-position="-133"
    slope="-12"
    unicode-range="U+0005-2122"
  />
<missing-glyph horiz-adv-x="500" 
 />
    <glyph glyph-name=".notdef" horiz-adv-x="500" 
 />
    <glyph glyph-name="NUL" horiz-adv-x="0" 
 />
    <glyph glyph-name="nonmarkingreturn" horiz-adv-x="256" 
 />
    <glyph glyph-name="space" unicode=" " horiz-adv-x="256" 
 />
    <glyph glyph-name="space" unicode="&#xa0;" horiz-adv-x="256" 
 />
    <glyph glyph-name="breve" horiz-adv-x="413" 
d="M449 738q-7 -35 -25.5 -63.5t-45 -48.5t-59 -31t-68.5 -11t-67.5 11t-54 31t-34.5 48.5t-9 63.5h90q0 -32 21 -55.5t58 -23.5t65.5 23.5t39.5 55.5h89v0z" />
    <glyph glyph-name="dotaccent" horiz-adv-x="265" 
d="M244 673q0 -32 -22.5 -53.5t-52.5 -21.5q-23 0 -39 15t-16 40q0 31 23.5 53t53.5 22q24 0 38.5 -16t14.5 -39z" />
    <glyph glyph-name="ring" horiz-adv-x="339" 
d="M328 677q0 -25 -9 -46.5t-24.5 -38t-37.5 -26t-49 -9.5q-41 0 -68.5 26t-27.5 65q0 25 8.5 46.5t24 37.5t37.5 25.5t49 9.5q41 0 69 -25.5t28 -64.5zM267 670q0 17 -11.5 30t-29.5 13q-23 0 -38 -17.5t-15 -40.5q0 -18 11.5 -30.5t28.5 -12.5q23 0 38.5 17t15.5 41z" />
    <glyph glyph-name="hungarumlaut" unicode="&#xa;" horiz-adv-x="437" 
d="M298 582h-72l129 168h118zM142 582h-72l120 168h117z" />
    <glyph glyph-name="ogonek" horiz-adv-x="246" 
d="M139 -155q-15 -8 -33 -12.5t-36 -4.5q-46 0 -72.5 21.5t-26.5 66.5q0 32 27.5 67.5t73.5 60.5h63v-2q-41 -24 -64 -51t-23 -47q0 -50 51 -50q14 0 26 4.5t24 12.5z" />
    <glyph glyph-name="caron" horiz-adv-x="455" 
d="M306 578h-106l-111 173h108l68 -106l101 106h107z" />
    <glyph glyph-name="dotlessi" unicode="&#xd;" 
d="M142 0h-114l78 494h114z" />
    <glyph glyph-name="fraction" horiz-adv-x="503" 
d="M-5 -10l-70 10l561 763l71 -10z" />
    <glyph glyph-name="fi" horiz-adv-x="569" 
d="M458 637q6 47 -14 74.5t-68 27.5q-49 0 -79 -27.5t-38 -78.5l-22 -140h123l-15 -97h-123l-63 -396h-114l63 396h-59l16 97h58l23 138q14 96 73 151.5t164 55.5q54 0 92.5 -14.5t62 -41t32 -63.5t2.5 -82h-114zM471 0h-114l79 494h113z" />
    <glyph glyph-name="fl" horiz-adv-x="569" 
d="M471 0h-114l100 631q8 50 -12.5 79t-70.5 29q-48 0 -77.5 -27.5t-37.5 -79.5l-22 -139h123l-15 -97h-123l-63 -396h-114l63 396h-59l16 97h58l22 136q15 95 74 151.5t163 56.5q108 0 156 -56t34 -148z" />
    <glyph glyph-name="Lslash" horiz-adv-x="490" 
d="M405 0h-360l53 339l-94 -48l19 111l93 48l49 304h121l-37 -233l104 53l-17 -110l-104 -54l-49 -305h239z" />
    <glyph glyph-name="lslash" horiz-adv-x="307" 
d="M342 467l-105 -55l-65 -412h-114l55 346l-101 -52l17 111l101 52l59 365h113l-47 -298l105 54z" />
    <glyph glyph-name="Zcaron" horiz-adv-x="650" 
d="M177 105h381l-16 -105h-588l511 648h-356l16 106h563zM470 808h-106l-111 173h107l69 -106l100 106h107z" />
    <glyph glyph-name="zcaron" horiz-adv-x="521" 
d="M181 96h281l-15 -96h-473l360 396h-262l15 97h455zM375 578h-105l-111 173h107l69 -106l100 106h107z" />
    <glyph glyph-name="exclam" unicode="!" horiz-adv-x="310" 
d="M187 217h-116l85 537h116zM175 67q0 -16 -7 -30.5t-18 -26t-26 -18.5t-31 -7q-28 0 -45 17t-17 43q0 16 7 31t18.5 26.5t27 18.5t31.5 7q28 0 44 -17.5t16 -43.5z" />
    <glyph glyph-name="quotedbl" unicode="&#x22;" horiz-adv-x="406" 
d="M300 475l-75 4l142 279l110 -4zM107 475l-76 4l143 279l110 -4z" />
    <glyph glyph-name="numbersign" unicode="#" horiz-adv-x="691" 
d="M648 459h-120l-28 -176h118l-13 -80h-117l-32 -203h-86l32 203h-155l-31 -203h-87l32 203h-121l14 80h119l29 176h-117l13 81h117l33 214h86l-34 -214h155l34 214h85l-33 -214h121zM287 459l-27 -176h155l27 176h-155z" />
    <glyph glyph-name="dollar" unicode="$" horiz-adv-x="563" 
d="M466 595q-30 32 -60.5 49t-69.5 17q-30 0 -52.5 -9t-38 -24t-23.5 -34.5t-8 -41.5q0 -29 20.5 -50.5t50.5 -41t66 -40t66 -48t50.5 -64t20.5 -88.5q0 -45 -15.5 -84.5t-44.5 -70t-70 -51t-92 -26.5l-17 -110h-79l18 109q-63 5 -115 32t-90 72l74 96q38 -44 79.5 -69.5
t94.5 -25.5q32 0 56 9.5t41 25.5t25.5 38t8.5 47q0 32 -20 55.5t-50 43.5t-65 40t-65 46t-50 60t-20 82t17 87.5t46.5 68.5t69.5 47t85 23l17 106h79l-16 -106q47 -6 82 -25t64 -47z" />
    <glyph glyph-name="percent" unicode="%" horiz-adv-x="775" 
d="M376 604q0 -45 -15 -86t-41.5 -72t-62.5 -49t-78 -18q-30 0 -56.5 11t-46 31t-31 49.5t-11.5 66.5q0 46 15.5 87t42.5 71.5t63 48.5t77 18q32 0 58.5 -11.5t45.5 -32.5t29.5 -50t10.5 -64zM141 -6l-74 6l563 763l74 -7zM738 216q0 -45 -15 -86t-41.5 -71.5t-62.5 -48.5
t-78 -18q-31 0 -57.5 10.5t-46 31t-30.5 49.5t-11 66q0 46 15.5 87t42 71.5t62.5 48.5t77 18q32 0 58.5 -11.5t46 -32.5t30 -50t10.5 -64zM301 599q0 40 -21 66t-56 26q-24 0 -44.5 -11.5t-36 -31.5t-24 -47t-8.5 -58q0 -42 21 -68t56 -26q24 0 44.5 12.5t36 33t24 47.5
t8.5 57zM661 211q0 40 -21 66.5t-56 26.5q-24 0 -44.5 -11.5t-35.5 -31.5t-24 -47t-9 -58q0 -42 21 -68t56 -26q24 0 45 12t36 32.5t23.5 47.5t8.5 57z" />
    <glyph glyph-name="ampersand" unicode="&#x26;" horiz-adv-x="726" 
d="M679 300q-12 -18 -27 -38.5t-31.5 -41t-33.5 -40t-33 -35.5l101 -145h-126l-57 80q-31 -25 -59 -43t-55.5 -30t-56 -18t-60.5 -6q-42 0 -81.5 12t-70 36t-49 59.5t-18.5 81.5q0 90 57 150.5t153 101.5q-16 23 -26 41t-16 34.5t-8 33.5t-2 39q0 42 16.5 78t45.5 63
t68 42.5t85 15.5q37 0 67.5 -12t52.5 -32.5t34 -49t12 -61.5q0 -66 -48 -121.5t-136 -95.5l123 -181q14 14 28.5 31.5t29 36t27.5 36.5t23 33l71 -55v0zM465 602q0 37 -20.5 59t-53.5 22q-22 0 -41 -8t-33 -22.5t-22 -33t-8 -39.5q0 -37 10 -61.5t33 -55.5q60 25 97.5 63.5
t37.5 75.5zM282 356q-72 -32 -106.5 -71t-34.5 -87q0 -51 33 -83t91 -32q38 0 76.5 18t77.5 52z" />
    <glyph glyph-name="quotesingle" unicode="'" horiz-adv-x="212" 
d="M107 475l-76 4l143 279l110 -4z" />
    <glyph glyph-name="parenleft" unicode="(" horiz-adv-x="325" 
d="M398 721q-121 -126 -182 -259t-61 -264q0 -99 24.5 -182t77.5 -162l-83 -60q-57 72 -91.5 172.5t-34.5 226.5q0 83 21 165t59 158t90 144t114 125l66 -64v0z" />
    <glyph glyph-name="parenright" unicode=")" horiz-adv-x="335" 
d="M257 388q0 -85 -21 -167t-58.5 -158t-89 -144t-113.5 -125l-69 64q121 125 183 260t62 263q0 94 -22.5 178.5t-78.5 165.5l81 60q57 -72 91.5 -172t34.5 -225z" />
    <glyph glyph-name="asterisk" unicode="*" horiz-adv-x="431" 
d="M309 566l86 -85l-46 -46l-84 87l-31 -118l-62 17l33 118l-117 -33l-17 61l117 30l-86 86l46 45l84 -86l31 118l62 -18l-33 -117l118 33l16 -62z" />
    <glyph glyph-name="plus" unicode="+" horiz-adv-x="645" 
d="M560 331h-200l-32 -200h-98l32 200h-200l16 97h199l32 200h98l-32 -200h200z" />
    <glyph glyph-name="comma" unicode="," horiz-adv-x="262" 
d="M43 61q0 32 24 54t55 22q33 0 50 -23t17 -53q0 -35 -16 -71.5t-40.5 -70t-54.5 -61.5t-58 -46l-36 33q39 31 72 73.5t47 90.5q-25 -2 -42.5 12.5t-17.5 39.5z" />
    <glyph glyph-name="hyphen" unicode="-" horiz-adv-x="436" 
d="M370 271h-320l15 98h321z" />
    <glyph glyph-name="period" unicode="." horiz-adv-x="261" 
d="M164 63q0 -15 -6.5 -29t-17.5 -25t-25.5 -17.5t-29.5 -6.5q-27 0 -43 16t-16 42q0 15 6.5 29.5t18 25.5t26 17.5t29.5 6.5q26 0 42 -17.5t16 -41.5z" />
    <glyph glyph-name="slash" unicode="/" horiz-adv-x="581" 
d="M-20 -221l-89 11l628 974l89 -10z" />
    <glyph glyph-name="zero" unicode="0" horiz-adv-x="662" 
d="M631 460q0 -91 -27 -176.5t-75 -152t-114.5 -106.5t-146.5 -40q-49 0 -92.5 18.5t-76 57t-51 96t-18.5 135.5q0 95 28.5 181.5t77.5 152t115.5 104.5t142.5 39q55 0 99 -21.5t74.5 -61t47 -97t16.5 -129.5zM512 457q0 45 -9.5 82.5t-27.5 64.5t-42.5 42t-54.5 15
q-45 0 -86.5 -28.5t-73 -78t-50 -115.5t-18.5 -142q0 -95 37 -150.5t96 -55.5q46 0 87.5 30.5t73 81.5t50 117t18.5 137z" />
    <glyph glyph-name="one" unicode="1" horiz-adv-x="384" 
d="M205 0h-122l103 648h-113l27 106h224z" />
    <glyph glyph-name="two" unicode="2" horiz-adv-x="635" 
d="M599 566q0 -69 -34.5 -128.5t-105.5 -124.5l-223 -209h294l-17 -104h-528l-1 2l354 331q40 37 66.5 67.5t42.5 57t23 50.5t7 46q0 48 -29 79t-86 31q-62 0 -104.5 -37.5t-53.5 -102.5l-1 -10h-123l2 10q9 58 35 103.5t64 77t86.5 48t103.5 16.5q51 0 93 -15.5t72 -42.5
t46.5 -64t16.5 -81z" />
    <glyph glyph-name="three" unicode="3" horiz-adv-x="597" 
d="M558 591q0 -60 -35 -111t-101 -80v-1q49 -22 74.5 -62t25.5 -95q0 -51 -22 -97.5t-60.5 -82t-91 -56.5t-113.5 -21q-52 0 -95 17t-73 47t-44 71t-8 88l2 8h117v-8q-3 -52 24 -85t87 -33q33 0 61.5 12.5t49.5 34t33 51t12 62.5q0 45 -31.5 75t-88.5 30h-16l13 83h17
q31 1 57.5 11.5t45.5 29t29.5 43.5t10.5 54q0 41 -26 66.5t-71 25.5q-53 0 -87.5 -29t-43.5 -76l-2 -9h-113l2 9q17 94 85 150t176 56q42 0 78.5 -13.5t63.5 -37.5t42.5 -56.5t15.5 -70.5z" />
    <glyph glyph-name="four" unicode="4" horiz-adv-x="637" 
d="M565 179h-98l-29 -179h-115l29 179h-355l9 63l461 526h93l-78 -491h98zM411 571l-259 -293v-1h215l47 294h-3z" />
    <glyph glyph-name="five" unicode="5" horiz-adv-x="590" 
d="M537 649h-269l-42 -149q14 3 32.5 4.5t38.5 1.5q53 0 94.5 -16.5t69.5 -45.5t42.5 -69.5t14.5 -87.5q0 -65 -24 -120.5t-67 -96t-102.5 -63t-130.5 -22.5q-69 0 -126.5 26t-95.5 74l50 92q42 -45 86.5 -66t91.5 -21q41 0 76 13.5t61 38.5t41 59t15 74q0 31 -10.5 57.5
t-32 46t-53.5 30.5t-75 11q-35 0 -68 -7.5t-63 -20.5l-6 4l101 358h370z" />
    <glyph glyph-name="six" unicode="6" horiz-adv-x="657" 
d="M602 291q0 -60 -25.5 -115.5t-70.5 -97.5t-106 -67.5t-132 -25.5q-54 0 -100 17t-79.5 47.5t-52.5 72.5t-19 91q0 69 29.5 131.5t88.5 127.5l253 285l132 -10l-228 -247l1 -2q23 8 44.5 12.5t49.5 4.5q49 0 88.5 -17.5t67.5 -47.5t43.5 -71t15.5 -88zM484 278
q0 65 -39.5 106t-107.5 41q-41 0 -78 -16t-64.5 -43.5t-43.5 -63t-16 -74.5q0 -32 11 -58.5t30.5 -46t46.5 -30t59 -10.5q42 0 78.5 17t64 44.5t43.5 62.5t16 71z" />
    <glyph glyph-name="seven" unicode="7" horiz-adv-x="597" 
d="M125 -2l-126 8l452 642h-382l18 106h559z" />
    <glyph glyph-name="eight" unicode="8" horiz-adv-x="595" 
d="M569 587q0 -31 -10.5 -60.5t-29 -55.5t-44 -46.5t-55.5 -34.5l-1 -1q97 -51 97 -153q0 -54 -22 -100t-60 -79.5t-90.5 -52.5t-114.5 -19q-47 0 -87 13.5t-69.5 37.5t-46 58t-16.5 76q0 76 42.5 133t115.5 88v1q-38 20 -61.5 60t-23.5 88t20.5 89.5t56.5 72.5t85 49
t106 18q49 0 87.5 -14t65.5 -39t41 -58t14 -71zM453 574q0 42 -27.5 71.5t-75.5 29.5q-29 0 -55.5 -11t-46 -30t-31 -43.5t-11.5 -51.5q0 -22 8.5 -41.5t23 -33t34 -21.5t40.5 -8q29 0 54.5 11.5t45 31t30.5 44.5t11 52zM411 235q0 22 -8 42t-23 35t-36 24t-47 9
q-31 0 -59 -12t-49.5 -32.5t-34 -47.5t-12.5 -56q0 -51 31.5 -81t80.5 -30q32 0 60.5 12.5t50 33.5t34 48t12.5 55z" />
    <glyph glyph-name="nine" unicode="9" horiz-adv-x="647" 
d="M634 534q0 -72 -31.5 -133t-93.5 -129l-245 -274l-132 8l227 246l-1 2q-21 -9 -42 -13.5t-47 -4.5q-46 0 -86 17.5t-70 47.5t-47 70.5t-17 86.5q0 71 28.5 128t75.5 98t107.5 63t125.5 22q59 0 105 -18.5t77.5 -51t48.5 -75t17 -90.5zM517 524q0 30 -10 56.5t-29 46.5
t-46 31.5t-61 11.5q-41 0 -78 -16.5t-64.5 -44t-44 -63t-16.5 -73.5q0 -31 11 -57.5t30.5 -45.5t47 -29.5t59.5 -10.5q40 0 76.5 16.5t64 43.5t44 62t16.5 72z" />
    <glyph glyph-name="colon" unicode=":" horiz-adv-x="270" 
d="M228 442q0 -15 -6.5 -29t-17.5 -25t-25.5 -17.5t-29.5 -6.5q-27 0 -43 16t-16 42q0 16 6.5 30t18 25t26 17.5t29.5 6.5q26 0 42 -17.5t16 -41.5zM166 63q0 -15 -6.5 -29t-17.5 -25t-25.5 -17.5t-29.5 -6.5q-27 0 -43 16t-16 42q0 15 6.5 29.5t18 25.5t26 17.5t29.5 6.5
q26 0 42 -17.5t16 -41.5z" />
    <glyph glyph-name="semicolon" unicode=";" horiz-adv-x="325" 
d="M246 436q-1 -14 -7.5 -27.5t-17.5 -24t-25.5 -16.5t-29.5 -6q-27 0 -44 18.5t-15 45.5q1 15 8 28.5t18 24t25 16.5t29 6q28 0 44.5 -19.5t14.5 -45.5zM43 61q0 32 24 54t55 22q33 0 50 -23t17 -53q0 -35 -16 -71.5t-40.5 -70t-54.5 -61.5t-58 -46l-36 33q39 31 72 73.5
t47 90.5q-25 -2 -42.5 12.5t-17.5 39.5z" />
    <glyph glyph-name="less" unicode="&#x3c;" horiz-adv-x="603" 
d="M236 376l262 -164l-64 -80l-370 239l2 17l442 235l47 -80z" />
    <glyph glyph-name="equal" unicode="=" horiz-adv-x="645" 
d="M575 432h-496l15 99h497zM543 228h-497l15 97h497z" />
    <glyph glyph-name="greater" unicode="&#x3e;" horiz-adv-x="598" 
d="M545 371l-445 -238l-44 82l319 170l-265 162l67 78l370 -237z" />
    <glyph glyph-name="question" unicode="?" horiz-adv-x="543" 
d="M535 561q0 -44 -17.5 -86t-50 -76.5t-78.5 -57.5t-102 -29l-15 -97h-116l28 177h27q45 0 82.5 13t64.5 35t42 51.5t15 63.5q0 51 -29 81.5t-82 30.5q-43 0 -75.5 -20.5t-48.5 -49.5l-98 28q24 67 85 105.5t150 38.5q50 0 90.5 -16t69 -44t43.5 -66t15 -82zM263 66
q0 -15 -7 -30t-18 -26t-26 -18t-31 -7q-27 0 -44.5 16.5t-17.5 44.5q0 16 7 30.5t19 26t27 18.5t31 7q28 0 44 -18.5t16 -43.5z" />
    <glyph glyph-name="at" unicode="@" horiz-adv-x="877" 
d="M840 420q0 -49 -14 -92.5t-38 -75t-57.5 -50t-72.5 -18.5q-46 0 -76 20.5t-39 60.5h-2q-20 -30 -58.5 -53.5t-89.5 -23.5q-32 0 -61 11.5t-51.5 32.5t-35.5 50.5t-13 66.5q0 47 16.5 86.5t44.5 68.5t65 45t77 16q44 0 75 -20t46 -48h1l13 54h84l-41 -206q-8 -40 6 -69
t50 -29q27 0 48 13.5t35 37.5t21.5 56t7.5 68q0 59 -24 111.5t-67.5 92t-103 63t-131.5 23.5q-80 0 -146 -27t-112.5 -75t-72 -113t-25.5 -140q0 -69 26 -127t72.5 -100t110.5 -65.5t141 -23.5q68 0 125.5 17t98.5 42v-63q-39 -23 -98.5 -37.5t-128.5 -14.5q-77 0 -150 24
t-129.5 71t-91 116.5t-34.5 160.5q0 92 33 168t89 130t130.5 84t156.5 30q86 0 158 -26.5t123.5 -73.5t80 -111t28.5 -138zM536 399q0 39 -26.5 66t-68.5 27q-27 0 -50.5 -10.5t-40 -28.5t-26 -42.5t-9.5 -52.5q0 -44 28 -70.5t72 -26.5q27 0 49.5 11.5t38.5 30.5t24.5 44
t8.5 52z" />
    <glyph glyph-name="A" unicode="A" horiz-adv-x="732" 
d="M534 0l-44 189h-303l-105 -189h-128l433 766h88l188 -766h-129zM405 580h-2l-163 -293h230z" />
    <glyph glyph-name="B" unicode="B" horiz-adv-x="614" 
d="M559 237q0 -47 -18.5 -90t-56 -75.5t-92.5 -52t-129 -19.5h-248l119 754h212q102 0 156.5 -43.5t54.5 -118.5q0 -70 -32.5 -117t-97.5 -76v-2q62 -14 97 -57t35 -103zM441 569q0 43 -33.5 65t-105.5 22h-61l-35 -221h66q88 0 128.5 36.5t40.5 97.5zM438 238
q0 48 -38.5 74.5t-110.5 26.5h-98l-39 -242h92q99 0 146.5 39.5t47.5 101.5z" />
    <glyph glyph-name="C" unicode="C" horiz-adv-x="694" 
d="M674 577l-3 -1q-36 39 -82.5 59.5t-111.5 20.5q-66 0 -125 -26t-103 -69.5t-69.5 -101.5t-25.5 -122q0 -53 18 -97t49.5 -76t74 -49.5t91.5 -17.5q57 0 118.5 22.5t105.5 64.5l1 -1l-23 -137q-108 -61 -226 -61q-72 0 -133 25.5t-106 70t-70.5 105.5t-25.5 133
q0 100 38 183t100.5 142t143.5 92t168 33q72 0 125 -16.5t95 -48.5z" />
    <glyph glyph-name="D" unicode="D" horiz-adv-x="709" 
d="M678 438q0 -91 -32 -170.5t-89.5 -139t-138 -94t-177.5 -34.5h-226l119 754h202q77 0 140 -24.5t108 -67t69.5 -100t24.5 -124.5zM557 426q0 49 -16 89.5t-46 70t-73 46t-97 16.5h-86l-86 -543h95q68 0 124.5 24.5t97.5 68t64 102t23 126.5z" />
    <glyph glyph-name="E" unicode="E" horiz-adv-x="530" 
d="M512 648h-273l-31 -202h262l-16 -102h-262l-39 -239h273l-17 -105h-394l119 754h394z" />
    <glyph glyph-name="F" unicode="F" horiz-adv-x="502" 
d="M486 648h-247l-32 -207h232l-15 -101h-233l-54 -340h-122l119 754h368z" />
    <glyph glyph-name="G" unicode="G" horiz-adv-x="846" 
d="M814 392q-7 -85 -38.5 -159.5t-85.5 -129.5t-130 -86.5t-174 -31.5q-76 0 -141.5 27t-113.5 73.5t-75.5 108.5t-27.5 133q0 93 33 174t92.5 140.5t142.5 93.5t184 34q57 0 107 -13.5t91.5 -38t73.5 -58.5t52 -76l-103 -46q-81 124 -237 124q-69 0 -125.5 -25.5
t-97.5 -69.5t-63.5 -102.5t-22.5 -124.5q0 -52 18 -97t50 -78.5t76 -52.5t97 -19q107 0 172.5 54t96.5 146h-213l16 100h346v0z" />
    <glyph glyph-name="H" unicode="H" horiz-adv-x="760" 
d="M629 0h-121l55 349h-370l-56 -349h-122l119 754h122l-48 -306h371l48 306h121z" />
    <glyph glyph-name="I" unicode="I" horiz-adv-x="268" 
d="M137 0h-122l119 754h123z" />
    <glyph glyph-name="J" unicode="J" horiz-adv-x="405" 
d="M305 182q-16 -95 -66.5 -146t-139.5 -51q-41 0 -72.5 13.5t-48.5 36.5l39 98q17 -20 37.5 -31t43.5 -11q38 0 58 24.5t29 80.5l93 558h122z" />
    <glyph glyph-name="K" unicode="K" horiz-adv-x="648" 
d="M313 390l284 -390h-153l-241 344l-14 -11l-52 -333h-122l119 754h123l-53 -330h2l338 330h147z" />
    <glyph glyph-name="L" unicode="L" horiz-adv-x="460" 
d="M375 0h-360l119 754h123l-104 -649h239z" />
    <glyph glyph-name="M" unicode="M" horiz-adv-x="955" 
d="M753 0l-8 529h-2l-307 -541h-40l-131 541h-2l-181 -529h-119l265 766h97l128 -545h2l303 545h100l16 -766h-121z" />
    <glyph glyph-name="N" unicode="N" horiz-adv-x="845" 
d="M717 -12h-82l-409 564h-2l-87 -552h-122l120 758h88l404 -562h2l88 558h121z" />
    <glyph glyph-name="O" unicode="O" horiz-adv-x="856" 
d="M825 430q0 -94 -34.5 -175.5t-94.5 -141.5t-140.5 -94t-172.5 -34q-75 0 -140 25t-113 70t-75 107t-27 136q0 93 34 174.5t93.5 141.5t140.5 95t174 35q75 0 140 -25.5t113 -70.5t75 -107t27 -136zM700 419q0 53 -17 97.5t-48.5 76.5t-75.5 50t-99 18q-66 0 -122 -26
t-97 -71t-64.5 -104.5t-23.5 -125.5q0 -54 17 -98.5t48 -76.5t75.5 -49.5t99.5 -17.5q65 0 121.5 26t97.5 70.5t64.5 104t23.5 126.5z" />
    <glyph glyph-name="P" unicode="P" horiz-adv-x="580" 
d="M572 563q0 -55 -19.5 -102.5t-56 -82.5t-89 -54.5t-118.5 -19.5h-104l-48 -304h-122l119 754h211q53 0 95 -14t71.5 -39t45 -60.5t15.5 -77.5zM444 548q0 49 -32.5 76.5t-102.5 27.5h-69l-39 -247h63q90 0 135 36.5t45 106.5z" />
    <glyph glyph-name="Q" unicode="Q" horiz-adv-x="855" 
d="M825 430q0 -97 -36 -179.5t-98 -142.5l93 -117h-129l-47 58q-49 -30 -106.5 -47t-118.5 -17q-75 0 -140 25t-113 70t-75 107t-27 136q0 93 34 174.5t93.5 141.5t140.5 95t174 35q75 0 140 -25.5t113 -70.5t75 -107t27 -136zM700 419q0 53 -17 97.5t-48.5 76.5t-75.5 50
t-99 18q-66 0 -122 -26t-97 -71t-64.5 -104.5t-23.5 -125.5q0 -54 17 -98.5t48 -76.5t75.5 -49.5t99.5 -17.5q40 0 77.5 12.5t67.5 32.5l-136 176h129l88 -114q37 44 59 100.5t22 119.5z" />
    <glyph glyph-name="R" unicode="R" horiz-adv-x="585" 
d="M552 570q0 -45 -14.5 -85.5t-43 -72t-70.5 -53t-97 -28.5l188 -331h-136l-177 323h-14l-51 -323h-122l119 754h191q59 0 102 -13.5t70.5 -37.5t41 -58t13.5 -75zM429 553q0 52 -33.5 79.5t-114.5 27.5h-40l-39 -251h53q83 0 128.5 39t45.5 105z" />
    <glyph glyph-name="S" unicode="S" horiz-adv-x="553" 
d="M467 596q-30 30 -63 47.5t-69 17.5q-30 0 -52.5 -9t-37.5 -24t-23 -34.5t-8 -41.5q0 -29 20 -50.5t50.5 -41t66 -40t66 -48t50.5 -64t20 -88.5q0 -51 -19 -94t-54 -74.5t-84.5 -49t-110.5 -17.5q-72 0 -132.5 28t-103.5 78l72 92q39 -42 82.5 -66.5t93.5 -24.5
q32 0 56 9.5t40.5 25.5t25 38t8.5 47q0 32 -20 55.5t-50 43.5t-65 40t-65 46t-50 60t-20 82q0 53 20.5 95.5t56 72.5t82 46t98.5 16q63 0 107.5 -21.5t80.5 -54.5z" />
    <glyph glyph-name="T" unicode="T" horiz-adv-x="509" 
d="M534 648h-179l-102 -648h-122l103 648h-179l16 106h480z" />
    <glyph glyph-name="U" unicode="U" horiz-adv-x="712" 
d="M635 307q-25 -162 -106.5 -242t-232.5 -80q-61 0 -108.5 16.5t-80.5 46t-50.5 70t-17.5 87.5q0 26 3 50.5t8 53.5l70 445h122l-67 -424q-4 -26 -7.5 -53.5t-3.5 -51.5q0 -58 36.5 -95t110.5 -37q50 0 85 15t59 45t38.5 74t23.5 101l66 426h122z" />
    <glyph glyph-name="V" unicode="V" horiz-adv-x="688" 
d="M319 -12h-77l-182 766h130l126 -555h2l295 555h136z" />
    <glyph glyph-name="W" unicode="W" horiz-adv-x="1067" 
d="M762 -12h-100l-100 564h-2l-289 -564h-100l-111 766h126l72 -565h2l296 583h79l103 -583h2l256 565h126z" />
    <glyph glyph-name="X" unicode="X" horiz-adv-x="664" 
d="M399 381l173 -381h-136l-121 285h-2l-210 -285h-141l298 381l-169 373h138l114 -275h2l204 275h144z" />
    <glyph glyph-name="Y" unicode="Y" horiz-adv-x="655" 
d="M376 310l-49 -310h-122l49 310l-194 444h139l131 -326h2l233 326h145z" />
    <glyph glyph-name="Z" unicode="Z" horiz-adv-x="650" 
d="M177 105h381l-16 -105h-588l511 648h-356l16 106h563z" />
    <glyph glyph-name="bracketleft" unicode="[" horiz-adv-x="325" 
d="M358 676h-116l-126 -792h116l-15 -96h-222l155 983h223z" />
    <glyph glyph-name="backslash" unicode="\" horiz-adv-x="713" 
d="M545 -220l-480 974l90 10l480 -974z" />
    <glyph glyph-name="bracketright" unicode="]" horiz-adv-x="325" 
d="M152 -212h-222l15 96h115l126 792h-116l15 95h223z" />
    <glyph glyph-name="underscore" unicode="_" horiz-adv-x="500" 
d="M362 -188h-400l16 98h399z" />
    <glyph glyph-name="grave" unicode="`" horiz-adv-x="299" 
d="M197 578l-117 168h133l75 -168h-91z" />
    <glyph glyph-name="a" unicode="a" horiz-adv-x="604" 
d="M515 0h-113l9 66h-2q-29 -36 -74 -57.5t-99 -21.5q-43 0 -81 15.5t-66.5 44.5t-45 69.5t-16.5 91.5q0 61 22 115.5t61 95t91.5 64.5t113.5 24q51 0 90 -21t62 -59h3l10 66h114zM449 279q0 58 -36.5 94t-98.5 36q-38 0 -70 -16t-55.5 -42.5t-37 -60.5t-13.5 -70
q0 -66 37.5 -101t96.5 -35q39 0 71.5 16t56 43t36.5 62t13 74z" />
    <glyph glyph-name="b" unicode="b" horiz-adv-x="616" 
d="M590 288q0 -64 -22 -119t-60.5 -95.5t-91.5 -63.5t-116 -23q-50 0 -90 21t-61 59h-2l-10 -67h-114l132 827h113l-64 -399h2q32 36 77 57.5t100 21.5q44 0 82 -16t66 -44.5t43.5 -69t15.5 -89.5zM478 272q0 60 -34 98.5t-96 38.5q-39 0 -72 -15.5t-57 -42t-37.5 -61
t-13.5 -73.5q0 -60 37 -96.5t95 -36.5q38 0 70.5 15.5t56.5 41.5t37.5 60t13.5 71z" />
    <glyph glyph-name="c" unicode="c" horiz-adv-x="479" 
d="M457 364q-26 23 -58 36t-81 13q-34 0 -67 -14t-58.5 -39.5t-41 -60.5t-15.5 -77q0 -67 41 -105t107 -38q38 0 73.5 14t65.5 38l-18 -101q-37 -23 -75.5 -33t-77.5 -10q-48 0 -89.5 16t-71.5 45t-47 70t-17 90q0 59 22 113t62 95.5t96.5 66t124.5 24.5q43 0 80 -12t63 -31
z" />
    <glyph glyph-name="d" unicode="d" horiz-adv-x="608" 
d="M520 0h-114l11 71h-2q-32 -42 -78.5 -63t-99.5 -21q-45 0 -83.5 16t-66.5 45t-44 69t-16 88q0 65 23 120.5t62 96t90.5 63t108.5 22.5q50 0 94 -20.5t69 -59.5h2l62 399h114zM453 280q0 58 -36 92t-95 34q-37 0 -69.5 -16t-56.5 -42.5t-38 -61t-14 -70.5
q0 -59 34.5 -94.5t94.5 -35.5q39 0 72 15.5t57 42t37.5 61.5t13.5 75z" />
    <glyph glyph-name="e" unicode="e" horiz-adv-x="569" 
d="M544 290q0 -15 -2 -31t-4 -30h-397q-3 -35 6.5 -63.5t28.5 -48.5t45.5 -30.5t57.5 -10.5q45 0 76 16.5t60 46.5l99 -13q-42 -67 -102.5 -103t-145.5 -36q-48 0 -91.5 16t-76.5 45.5t-52 70.5t-19 90q0 60 19.5 114t56.5 95t91 65t123 24q51 0 92.5 -16.5t71.5 -46
t46.5 -69t16.5 -85.5zM436 297q-3 57 -36 90.5t-90 33.5q-60 0 -101 -33.5t-57 -90.5h284v0z" />
    <glyph glyph-name="f" unicode="f" horiz-adv-x="334" 
d="M397 725q-11 5 -23 9t-26 4q-36 0 -58 -23.5t-31 -80.5l-22 -141h123l-15 -97h-123l-63 -396h-114l63 396h-59l16 97h58l23 144q8 50 26.5 88t46 63t62.5 37.5t74 12.5q14 0 30 -3t27 -9z" />
    <glyph glyph-name="g" unicode="g" horiz-adv-x="602" 
d="M521 40q-25 -161 -102 -232t-208 -71q-52 0 -94.5 14.5t-72.5 40.5t-45.5 62.5t-15.5 81.5h113q2 -26 12.5 -46t28 -33.5t40 -20t47.5 -6.5q41 0 72 12.5t53.5 40.5t37.5 71.5t24 106.5l-2 1q-31 -36 -71.5 -55.5t-97.5 -19.5q-43 0 -81.5 15.5t-68 44t-46.5 69t-17 91.5
q0 63 22.5 118t61.5 95.5t91.5 63.5t112.5 23q51 0 91.5 -21t61.5 -59h2l10 66h114zM449 280q0 58 -37 93.5t-98 35.5q-38 0 -70 -16t-55.5 -42.5t-37 -60.5t-13.5 -70q0 -65 36.5 -100.5t95.5 -35.5q39 0 71.5 15.5t56.5 42t37.5 62.5t13.5 76z" />
    <glyph glyph-name="h" unicode="h" horiz-adv-x="559" 
d="M466 0h-113l42 270q5 32 5 58q0 27 -7.5 46t-25 29.5t-47.5 10.5q-53 0 -92.5 -41.5t-52.5 -123.5l-39 -249h-115l131 827h114l-63 -404h2q31 42 75 63t95 21q47 0 77.5 -15.5t47 -43.5t19 -66.5t-5.5 -84.5z" />
    <glyph glyph-name="i" unicode="i" 
d="M258 673q0 -32 -23 -53.5t-53 -21.5q-23 0 -39 15t-16 40q0 31 23.5 53t53.5 22q24 0 39 -16t15 -39zM142 0h-114l78 494h114z" />
    <glyph glyph-name="j" unicode="j" 
d="M258 673q0 -32 -23 -53.5t-53 -21.5q-23 0 -39.5 15t-16.5 40q0 15 6.5 29t17.5 24t25 16t29 6q24 0 39 -16t15 -39zM129 -76q-16 -96 -68 -143t-133 -47q-18 0 -35 4t-28 9l17 102q15 -7 26.5 -9.5t22.5 -2.5q34 0 56 22.5t32 82.5l86 552h113z" />
    <glyph glyph-name="k" unicode="k" horiz-adv-x="519" 
d="M283 271l201 -271h-139l-158 227l-15 -12l-33 -215h-116l131 821h114l-82 -518l214 190h143z" />
    <glyph glyph-name="l" unicode="l" 
d="M142 0h-114l130 822h115z" />
    <glyph glyph-name="m" unicode="m" horiz-adv-x="843" 
d="M750 0h-114l44 273q4 25 5.5 50t-4.5 45t-21.5 32.5t-46.5 12.5q-60 0 -89 -42.5t-39 -111.5l-41 -259h-114l43 268q5 30 6 56.5t-5.5 46.5t-23.5 32t-47 12q-28 0 -49.5 -12t-36.5 -33.5t-25 -51.5t-15 -66l-40 -252h-114l78 493h114l-10 -62h2q28 35 67.5 55.5
t85.5 20.5q54 0 88.5 -24t48.5 -66q28 42 73.5 66t99.5 24q45 0 73.5 -14t43 -39.5t17 -61.5t-3.5 -80z" />
    <glyph glyph-name="n" unicode="n" horiz-adv-x="558" 
d="M465 0h-114l43 270q5 33 5.5 59.5t-7 45t-25 28.5t-48.5 10q-55 0 -93 -42.5t-50 -121.5l-39 -249h-114l78 493h114l-11 -70h3q31 42 73.5 63t93.5 21q47 0 77 -15t46.5 -42t19.5 -65t-5 -85z" />
    <glyph glyph-name="o" unicode="o" horiz-adv-x="583" 
d="M559 282q0 -62 -21.5 -116t-60.5 -93.5t-93.5 -62.5t-120.5 -23q-50 0 -93 16.5t-75 46.5t-50 71t-18 89q0 62 21 116.5t60 94.5t93 63t120 23q50 0 93.5 -17t75.5 -47t50.5 -71t18.5 -90zM448 269q0 29 -10 54t-28 44.5t-43.5 30.5t-55.5 11q-38 0 -70 -15t-55 -41
t-36 -59.5t-13 -71.5q0 -28 10 -53.5t28 -44t43.5 -29.5t55.5 -11q37 0 69 15t55 40t36.5 59t13.5 71z" />
    <glyph glyph-name="p" unicode="p" horiz-adv-x="614" 
d="M590 288q0 -64 -21.5 -119t-60 -95.5t-91 -63.5t-115.5 -23q-48 0 -91 22t-63 58h-2l-53 -334h-113l121 760h114l-11 -65h2q32 36 77 57.5t100 21.5q44 0 82 -16t65.5 -44.5t43.5 -69t16 -89.5zM478 272q0 60 -35 98.5t-97 38.5q-39 0 -72 -15.5t-56.5 -42t-36.5 -61
t-13 -73.5q0 -60 37 -96.5t95 -36.5q38 0 70.5 15.5t56.5 41.5t37.5 60t13.5 71z" />
    <glyph glyph-name="q" unicode="q" horiz-adv-x="608" 
d="M477 -266h-113l53 337h-2q-31 -44 -80 -64t-98 -20q-45 0 -83.5 16.5t-66.5 45.5t-44 69t-16 87q0 65 23 120.5t62 96t90.5 63t108.5 22.5q50 0 95 -21.5t66 -62.5h3l10 70h114zM453 278q0 57 -35.5 92.5t-95.5 35.5q-38 0 -70.5 -16t-56.5 -42.5t-37.5 -61t-13.5 -72.5
q0 -57 34.5 -92.5t94.5 -35.5q41 0 74 16t56.5 42.5t36.5 61.5t13 72z" />
    <glyph glyph-name="r" unicode="r" horiz-adv-x="373" 
d="M368 390q-11 4 -24 6.5t-32 2.5q-112 0 -139 -170l-36 -229h-114l78 493h114l-11 -73h2q26 39 63.5 60t82.5 21q8 0 22 -1.5t20 -3.5z" />
    <glyph glyph-name="s" unicode="s" horiz-adv-x="426" 
d="M353 379q-17 18 -40.5 30t-50.5 12q-35 0 -58 -18.5t-23 -44.5q0 -20 15 -32t38 -21t49.5 -18.5t49.5 -24.5t38 -38t15 -61q0 -36 -16 -68t-44 -56t-67 -38t-84 -14q-59 0 -108 24.5t-75 66.5l68 66q18 -30 52 -50t72 -20q42 0 66 22.5t24 50.5q0 22 -15 36t-37.5 24
t-49 20t-49 25t-37.5 38t-15 59q0 34 15.5 63t42 50t62.5 33t78 12q47 0 82 -15.5t61 -41.5z" />
    <glyph glyph-name="t" unicode="t" horiz-adv-x="307" 
d="M320 396h-93l-62 -396h-115l63 396h-55l15 97h55l27 161h113l-26 -161h93z" />
    <glyph glyph-name="u" unicode="u" horiz-adv-x="560" 
d="M496 203q-17 -107 -76 -162.5t-173 -55.5q-59 0 -99.5 16t-64 45.5t-30.5 71.5t1 94l45 281h114l-44 -281q-11 -66 11.5 -99t83.5 -33q53 0 81 33.5t41 117.5l42 262h114z" />
    <glyph glyph-name="v" unicode="v" horiz-adv-x="538" 
d="M440 493h128l-321 -505h-61l-162 505h127l93 -339z" />
    <glyph glyph-name="w" unicode="w" horiz-adv-x="819" 
d="M559 -12h-71l-80 342l-187 -342h-74l-123 505h120l73 -333h2l187 346h59l79 -346h1l178 333h120z" />
    <glyph glyph-name="x" unicode="x" horiz-adv-x="521" 
d="M321 252l146 -252h-127l-92 174h-2l-155 -174h-129l235 251l-140 242h127l85 -165h2l145 165h129z" />
    <glyph glyph-name="y" unicode="y" horiz-adv-x="571" 
d="M112 -266h-120l193 301l-161 458h126l113 -342h2l207 342h126z" />
    <glyph glyph-name="z" unicode="z" horiz-adv-x="521" 
d="M181 96h281l-15 -96h-473l360 396h-262l15 97h455z" />
    <glyph glyph-name="braceleft" unicode="{" horiz-adv-x="325" 
d="M352 677q-42 0 -62.5 -22t-29.5 -80l-27 -173q-8 -54 -32 -82.5t-69 -39.5l-1 -2q42 -11 56.5 -39t6.5 -82l-28 -172q-9 -58 4.5 -81t55.5 -23l-16 -96q-90 0 -129.5 42t-25.5 130l29 183q6 40 -9.5 64t-47.5 24l17 102q32 0 55.5 24.5t28.5 64.5l29 183q14 88 67 129.5
t143 41.5z" />
    <glyph glyph-name="bar" unicode="|" horiz-adv-x="449" 
d="M175 -221v985h99v-985h-99z" />
    <glyph glyph-name="braceright" unicode="}" horiz-adv-x="335" 
d="M281 228q-32 0 -55.5 -24t-29.5 -64l-28 -183q-28 -172 -210 -172l15 96q42 0 62 23t30 81l27 172q9 54 32.5 82t68.5 39v2q-41 11 -55.5 39.5t-6.5 82.5l27 173q9 58 -4 80t-55 22l15 96q92 0 131 -41.5t25 -129.5l-29 -183q-6 -40 9 -64.5t47 -24.5z" />
    <glyph glyph-name="asciitilde" unicode="~" horiz-adv-x="413" 
d="M394 438q-9 -63 -41.5 -92t-86.5 -29q-16 0 -33.5 6t-34.5 13.5t-33 13.5t-30 6q-40 0 -46 -40h-71q10 66 45 93.5t84 27.5q18 0 35 -6t33 -13.5t31.5 -13.5t30.5 -6q40 0 46 40h71v0z" />
    <glyph glyph-name="quotesinglbase" unicode="&#x201a;" horiz-adv-x="262" 
d="M43 61q0 32 24 54t55 22q33 0 50 -23t17 -53q0 -35 -16 -71.5t-40.5 -70t-54.5 -61.5t-58 -46l-36 33q39 31 72 73.5t47 90.5q-25 -2 -42.5 12.5t-17.5 39.5z" />
    <glyph glyph-name="florin" unicode="&#x192;" horiz-adv-x="457" 
d="M420 654q-10 5 -21.5 9t-25.5 4q-36 0 -59 -23t-32 -80l-16 -104h123l-15 -97h-123l-52 -330q-7 -48 -26.5 -83.5t-46.5 -58.5t-60.5 -34t-70.5 -11q-14 0 -31.5 3t-28.5 9l15 102q10 -5 22 -9t26 -4q73 0 89 102l49 314h-60l15 97h61l19 120q8 48 27 83.5t46 59
t60.5 34.5t70.5 11q14 0 32 -3.5t29 -9.5z" />
    <glyph glyph-name="quotedblbase" unicode="&#x201e;" horiz-adv-x="472" 
d="M43 61q0 32 24 54t55 22q33 0 50 -23t17 -53q0 -35 -16 -71.5t-40.5 -70t-54.5 -61.5t-58 -46l-36 33q39 31 72 73.5t47 90.5q-25 -2 -42.5 12.5t-17.5 39.5zM253 61q0 32 24 54t55 22q33 0 50 -23t17 -53q0 -35 -16 -71.5t-40.5 -70t-54.5 -61.5t-58 -46l-37 33
q39 31 72.5 73.5t47.5 90.5q-25 -2 -42.5 12.5t-17.5 39.5z" />
    <glyph glyph-name="ellipsis" unicode="&#x2026;" horiz-adv-x="782" 
d="M685 63q0 -15 -6.5 -29t-17 -25t-25 -17.5t-29.5 -6.5q-26 0 -43 16t-17 42q0 15 6.5 29.5t18 25.5t26 17.5t29.5 6.5q26 0 42 -17.5t16 -41.5zM424 63q0 -15 -6.5 -29t-17 -25t-24.5 -17.5t-30 -6.5q-26 0 -42.5 16t-16.5 42q0 15 6.5 29.5t17.5 25.5t25.5 17.5
t29.5 6.5q27 0 42.5 -17.5t15.5 -41.5zM164 63q0 -15 -6.5 -29t-17.5 -25t-25.5 -17.5t-29.5 -6.5q-27 0 -43 16t-16 42q0 15 6.5 29.5t18 25.5t26 17.5t29.5 6.5q26 0 42 -17.5t16 -41.5z" />
    <glyph glyph-name="dagger" unicode="&#x2020;" horiz-adv-x="546" 
d="M517 443h-179l-99 -622h-106l98 622h-179l16 94h178l34 217h106l-33 -217h179z" />
    <glyph glyph-name="daggerdbl" unicode="&#x2021;" horiz-adv-x="546" 
d="M517 442h-179l-49 -302h179l-15 -94h-178l-36 -225h-106l34 225h-178l14 94h179l49 302h-179l16 95h178l34 217h106l-33 -217h179z" />
    <glyph glyph-name="circumflex" unicode="&#x2c6;" horiz-adv-x="455" 
d="M347 578l-68 104l-103 -104h-105l167 173h105l111 -173h-107z" />
    <glyph glyph-name="perthousand" unicode="&#x2030;" horiz-adv-x="1192" 
d="M387 604q0 -45 -15 -86t-41.5 -72t-62.5 -49t-78 -18q-30 0 -56.5 11t-46 31t-31 49.5t-11.5 66.5q0 46 15.5 87t42 71.5t62.5 48.5t77 18q65 0 105 -43.5t40 -114.5zM151 -6l-73 6l562 763l74 -7zM1155 216q0 -45 -15 -86t-42 -71.5t-63 -48.5t-78 -18q-30 0 -56.5 10.5
t-46 31t-30.5 49.5t-11 66q0 46 15.5 87t42 71.5t62.5 48.5t77 18q32 0 58.5 -11.5t46 -32.5t30 -50t10.5 -64zM748 216q0 -45 -15 -86t-41.5 -71.5t-62.5 -48.5t-78 -18q-31 0 -57.5 10.5t-46 31t-30.5 49.5t-11 66q0 46 15.5 87t42.5 71.5t63 48.5t77 18q32 0 58.5 -11.5
t45.5 -32.5t29.5 -50t10.5 -64zM311 599q0 40 -21 66t-56 26q-24 0 -44.5 -11.5t-36 -31.5t-24 -47t-8.5 -58q0 -42 21 -68t56 -26q24 0 44.5 12.5t36 33t24 47.5t8.5 57zM1079 211q0 40 -21 66.5t-56 26.5q-24 0 -45 -11.5t-36 -31.5t-24 -47t-9 -58q0 -42 21.5 -68
t56.5 -26q24 0 44.5 12t36 32.5t24 47.5t8.5 57zM673 211q0 40 -21 66.5t-56 26.5q-24 0 -45 -11.5t-36 -31.5t-24 -47t-9 -58q0 -42 20.5 -68t55.5 -26q24 0 45 12t36.5 32.5t24.5 47.5t9 57z" />
    <glyph glyph-name="Scaron" unicode="&#x160;" horiz-adv-x="553" 
d="M467 596q-30 30 -63 47.5t-69 17.5q-30 0 -52.5 -9t-37.5 -24t-23 -34.5t-8 -41.5q0 -29 20 -50.5t50.5 -41t66 -40t66 -48t50.5 -64t20 -88.5q0 -51 -19 -94t-54 -74.5t-84.5 -49t-110.5 -17.5q-72 0 -132.5 28t-103.5 78l72 92q39 -42 82.5 -66.5t93.5 -24.5
q32 0 56 9.5t40.5 25.5t25 38t8.5 47q0 32 -20 55.5t-50 43.5t-65 40t-65 46t-50 60t-20 82q0 53 20.5 95.5t56 72.5t82 46t98.5 16q63 0 107.5 -21.5t80.5 -54.5zM419 820h-106l-110 174h107l69 -107l100 107h107z" />
    <glyph glyph-name="guilsinglleft" unicode="&#x2039;" horiz-adv-x="320" 
d="M131 249l98 -157l-73 -49l-126 208l191 207l58 -50z" />
    <glyph glyph-name="OE" unicode="&#x152;" horiz-adv-x="971" 
d="M952 648h-272l-33 -202h263l-16 -102h-262l-39 -239h273l-16 -105h-474q-77 0 -140 24t-108 66.5t-69.5 100t-24.5 124.5q0 91 32 171t90 139.5t138 94t177 34.5h498zM464 648q-67 0 -124 -24.5t-98 -68t-64 -102t-23 -126.5q0 -49 16 -89.5t46 -70t73.5 -46t97.5 -16.5
h85l86 543h-95z" />
    <glyph glyph-name="quoteleft" unicode="&#x2018;" horiz-adv-x="302" 
d="M243 524q0 -32 -23.5 -54t-54.5 -22q-33 0 -50 23t-17 53q0 35 16 71.5t41 70t54.5 61.5t57.5 46l36 -32q-39 -31 -72.5 -74.5t-47.5 -91.5q25 2 42.5 -12t17.5 -39z" />
    <glyph glyph-name="quoteright" unicode="&#x2019;" horiz-adv-x="302" 
d="M136 692q0 32 24 54t55 22q33 0 50 -23t17 -53q0 -35 -16 -72t-40.5 -70.5t-54.5 -61.5t-58 -46l-37 33q39 31 72.5 74t47.5 91q-25 -2 -42.5 12.5t-17.5 39.5z" />
    <glyph glyph-name="quotedblleft" unicode="&#x201c;" horiz-adv-x="512" 
d="M453 524q0 -32 -23.5 -54t-54.5 -22q-33 0 -50 23t-17 53q0 35 16 71.5t41 70t54.5 61.5t57.5 46l36 -32q-39 -31 -72.5 -74.5t-47.5 -91.5q25 2 42.5 -12t17.5 -39zM243 524q0 -32 -23.5 -54t-54.5 -22q-33 0 -50 23t-17 53q0 35 16 71.5t41 70t54.5 61.5t57.5 46
l36 -32q-39 -31 -72.5 -74.5t-47.5 -91.5q25 2 42.5 -12t17.5 -39z" />
    <glyph glyph-name="quotedblright" unicode="&#x201d;" horiz-adv-x="512" 
d="M136 692q0 32 24 54t55 22q33 0 50 -23t17 -53q0 -35 -16 -72t-40.5 -70.5t-54.5 -61.5t-58 -46l-37 33q39 31 72.5 74t47.5 91q-25 -2 -42.5 12.5t-17.5 39.5zM346 692q0 32 24 54t55 22q33 0 50 -23t17 -53q0 -35 -16 -72t-40.5 -70.5t-54.5 -61.5t-58 -46l-37 33
q39 31 72.5 74t47.5 91q-25 -2 -42.5 12.5t-17.5 39.5z" />
    <glyph glyph-name="bullet" unicode="&#x2022;" horiz-adv-x="344" 
d="M313 377q0 -29 -10.5 -55t-29.5 -45.5t-45 -30.5t-56 -11t-56 11t-45 30.5t-30 45.5t-11 55t11 54.5t30 44.5t45 30t56 11t56 -11t45 -30t29.5 -44.5t10.5 -54.5z" />
    <glyph glyph-name="endash" unicode="&#x2013;" horiz-adv-x="511" 
d="M448 271h-400l15 98h400z" />
    <glyph glyph-name="emdash" unicode="&#x2014;" horiz-adv-x="761" 
d="M698 271h-650l15 98h650z" />
    <glyph glyph-name="tilde" unicode="&#x2dc;" horiz-adv-x="439" 
d="M476 731q-11 -70 -46 -100.5t-90 -30.5q-17 0 -35 6.5t-36 14.5t-35.5 14.5t-32.5 6.5q-20 0 -31.5 -11t-14.5 -30h-77q11 69 47 99.5t90 30.5q19 0 37 -6.5t35 -15t33.5 -15t32.5 -6.5q20 0 31.5 11.5t14.5 31.5h77v0z" />
    <glyph glyph-name="trademark" unicode="&#x2122;" horiz-adv-x="495" 
d="M222 707h-54l-29 -194h-52l30 194h-53l8 47h158zM441 513v140h-3l-77 -143h-30l-30 142h-4l-43 -139h-53l81 241h45l31 -148h3l82 148h44l6 -241h-52z" />
    <glyph glyph-name="scaron" unicode="&#x161;" horiz-adv-x="426" 
d="M353 379q-17 18 -40.5 30t-50.5 12q-35 0 -58 -18.5t-23 -44.5q0 -20 15 -32t38 -21t49.5 -18.5t49.5 -24.5t38 -38t15 -61q0 -36 -16 -68t-44 -56t-67 -38t-84 -14q-59 0 -108 24.5t-75 66.5l68 66q18 -30 52 -50t72 -20q42 0 66 22.5t24 50.5q0 22 -15 36t-37.5 24
t-49 20t-49 25t-37.5 38t-15 59q0 34 15.5 63t42 50t62.5 33t78 12q47 0 82 -15.5t61 -41.5zM336 578h-106l-111 173h108l68 -106l101 106h107z" />
    <glyph glyph-name="guilsinglright" unicode="&#x203a;" horiz-adv-x="322" 
d="M88 43l-60 51l150 159l-96 157l71 48l127 -207z" />
    <glyph glyph-name="oe" unicode="&#x153;" horiz-adv-x="983" 
d="M958 290q0 -15 -1 -30.5t-4 -30.5h-388q-5 -70 30.5 -111.5t98.5 -41.5q45 0 75.5 16.5t59.5 46.5l99 -13q-42 -67 -102.5 -103t-141.5 -36q-62 0 -115.5 29t-82.5 78q-36 -48 -95.5 -77.5t-131.5 -29.5q-48 0 -90 16.5t-73.5 46.5t-50 71t-18.5 89q0 62 21.5 116.5
t59.5 94.5t92 63t118 23t115.5 -29t80.5 -79q36 48 92 78t129 30q50 0 91 -16.5t70 -46t45.5 -69t16.5 -85.5zM851 296q-4 56 -35 88t-91 32q-54 0 -94 -33.5t-55 -86.5h275v0zM448 269q0 29 -10 54t-28 44.5t-43.5 30.5t-55.5 11q-38 0 -70 -15t-55 -41t-36 -59.5
t-13 -71.5q0 -28 10 -53.5t28 -44t43.5 -29.5t55.5 -11q37 0 69 15t55 40t36.5 59t13.5 71z" />
    <glyph glyph-name="Ydieresis" unicode="&#x178;" horiz-adv-x="655" 
d="M376 310l-49 -310h-122l49 310l-194 444h139l131 -326h2l233 326h145zM585 903q0 -32 -23 -53.5t-53 -21.5q-23 0 -39 15t-16 40q0 15 6.5 29t17.5 24t25 16t29 6q23 0 38 -16t15 -39zM345 903q0 -32 -23 -53.5t-53 -21.5q-23 0 -38.5 15t-15.5 40q0 31 23.5 53t53.5 22
q23 0 38 -16t15 -39z" />
    <glyph glyph-name="exclamdown" unicode="&#xa1;" horiz-adv-x="309" 
d="M237 443q0 -16 -7 -31t-18.5 -26.5t-26.5 -18.5t-32 -7q-27 0 -43.5 17.5t-16.5 43.5q0 16 7 31t18.5 26t26.5 18t31 7q28 0 44.5 -17t16.5 -43zM113 -264h-115l84 534h116z" />
    <glyph glyph-name="cent" unicode="&#xa2;" horiz-adv-x="544" 
d="M496 503q-26 22 -58.5 35.5t-81.5 13.5q-34 0 -67 -14.5t-58.5 -40t-41 -60.5t-15.5 -77q0 -67 41.5 -105t107.5 -38q38 0 72.5 14t65.5 39l-18 -102q-62 -39 -129 -42l-19 -114h-79l19 118q-38 8 -69 27t-53.5 47t-35 64t-12.5 78q0 53 18 102.5t51 89.5t80 67t104 36
l16 102h79l-15 -99q33 -2 64 -13t52 -28z" />
    <glyph glyph-name="sterling" unicode="&#xa3;" horiz-adv-x="626" 
d="M467 549q5 55 -21.5 87t-79.5 32q-28 0 -52.5 -9.5t-42 -26t-27.5 -40t-10 -50.5q0 -32 7.5 -56.5t18 -47.5t21 -46.5t17.5 -52.5h140l-10 -70h-126q-6 -43 -34.5 -83t-83.5 -72q35 0 59 -4.5t44 -9.5t39 -9.5t43 -4.5q40 0 74.5 20t60.5 55l59 -76q-73 -100 -197 -100
q-34 0 -61.5 6t-53 12.5t-51.5 12.5t-56 6q-29 0 -57 -7t-61 -21l-26 94q83 38 130 83t54 98h-132l11 70h117q-6 24 -15.5 45t-19.5 45t-17 53t-7 69q0 47 19.5 86.5t53.5 69t80 46t99 16.5t94 -15t68 -43.5t39.5 -69.5t7.5 -92h-115z" />
    <glyph glyph-name="yen" unicode="&#xa5;" horiz-adv-x="675" 
d="M434 375h163l-13 -79h-202l-11 -70h202l-12 -79h-202l-24 -147h-121l23 147h-202l12 79h203l10 70h-201l12 79h163l-166 379h140l130 -326h2l234 326h144z" />
    <glyph glyph-name="section" unicode="&#xa7;" horiz-adv-x="497" 
d="M445 621q-27 24 -57.5 38.5t-66.5 14.5q-47 0 -76.5 -24.5t-29.5 -64.5q0 -25 17.5 -42t44.5 -32t57.5 -30.5t57.5 -36.5t44.5 -50t17.5 -72q0 -36 -11.5 -68t-32.5 -57.5t-49 -44.5t-61 -30q34 -20 59.5 -54.5t25.5 -82.5q0 -41 -18 -76t-48.5 -61.5t-71 -41.5
t-86.5 -15q-64 0 -111.5 21t-89.5 55l59 83q32 -31 65 -47.5t75 -16.5q51 0 81 25.5t30 69.5q0 27 -18 44.5t-44.5 32.5t-57.5 30t-57.5 35t-44.5 49.5t-18 72.5q0 35 12 66.5t33 57t49 44.5t59 29q-32 20 -57 52t-25 77q0 44 17 80t46 62.5t68 41t83 14.5q63 0 106.5 -18.5
t76.5 -46.5zM343 298q0 35 -23 61t-61 26q-24 0 -45.5 -10t-37.5 -27t-25.5 -38.5t-9.5 -45.5q0 -38 25 -62.5t59 -24.5q24 0 45 10t37.5 27t26 39t9.5 45z" />
    <glyph glyph-name="dieresis" unicode="&#xa8;" horiz-adv-x="492" 
d="M479 673q0 -32 -23 -53.5t-53 -21.5q-23 0 -39 15t-16 40q0 15 6.5 29t17.5 24t25 16t29 6q23 0 38 -16t15 -39zM239 673q0 -32 -23 -53.5t-53 -21.5q-23 0 -39 15t-16 40q0 15 6.5 29t17.5 24t25 16t29 6q23 0 38 -16t15 -39z" />
    <glyph glyph-name="copyright" unicode="&#xa9;" horiz-adv-x="833" 
d="M816 377q0 -81 -30 -152.5t-83 -125t-125.5 -84t-158.5 -30.5q-87 0 -160 31t-126 84t-83 125t-30 153t30 152t83 124.5t125.5 84t158.5 30.5t159 -30.5t126.5 -84t83.5 -125t30 -152.5zM770 377q0 72 -27 135t-74 110t-111.5 74.5t-139.5 27.5q-76 0 -140.5 -27
t-111.5 -74t-73.5 -110.5t-26.5 -135.5t27 -135.5t74 -110.5t111.5 -74.5t139.5 -27.5q76 0 140.5 27t111.5 73.5t73.5 110.5t26.5 137zM560 192q-29 -17 -59 -27.5t-63 -10.5q-52 0 -94.5 18t-72.5 48.5t-46 72t-16 87.5q0 47 16.5 87.5t46.5 71.5t72 48.5t93 17.5
q35 0 66 -10.5t57 -28.5v-82l-1 -1q-20 24 -53 39t-68 15q-34 0 -63 -11.5t-49 -32.5t-31.5 -50t-11.5 -64q0 -33 11.5 -62t32.5 -50.5t49.5 -33.5t62.5 -12q32 0 66 15t54 37h1v-81v0z" />
    <glyph glyph-name="ordfeminine" unicode="&#xaa;" horiz-adv-x="375" 
d="M358 469h-75l6 39h-1q-17 -22 -43 -35t-58 -13q-26 0 -49 9.5t-40 26.5t-27 42t-10 55q0 37 13.5 69.5t36.5 57t55 38.5t68 14q61 0 88 -47h2l6 39h75zM309 634q0 32 -20.5 53t-55.5 21q-22 0 -40 -9t-31 -24t-20.5 -34t-7.5 -40q0 -36 21.5 -56t54.5 -20q21 0 39.5 9
t31.5 24t20.5 35t7.5 41z" />
    <glyph glyph-name="guillemotleft" unicode="&#xab;" horiz-adv-x="489" 
d="M314 251l99 -159l-73 -49l-126 208l191 207l57 -48zM129 251l100 -159l-73 -49l-126 208l191 207l57 -48z" />
    <glyph glyph-name="logicalnot" unicode="&#xac;" horiz-adv-x="335" 
d="M281 323q-32 0 -55.5 -24.5t-29.5 -64.5l-28 -184q-14 -88 -65.5 -129t-144.5 -41l15 96q42 0 62 22t30 80l27 173q9 54 32.5 82.5t68.5 39.5v3q-41 11 -55.5 38.5t-6.5 81.5l27 173q9 58 -4 80.5t-55 22.5l15 96q92 0 131 -41.5t25 -129.5l-29 -184q-6 -40 9 -64t47 -24
z" />
    <glyph glyph-name="minus" unicode="&#xad;" horiz-adv-x="602" 
d="M560 206h-512l16 99h512z" />
    <glyph glyph-name="registered" unicode="&#xae;" horiz-adv-x="833" 
d="M816 377q0 -81 -30 -152.5t-83 -125t-125.5 -84t-158.5 -30.5q-87 0 -160 31t-126 84t-83 125t-30 153t30 152t83 124.5t125.5 84t158.5 30.5t159 -30.5t126.5 -84t83.5 -125t30 -152.5zM770 377q0 72 -27 135t-74 110t-111.5 74.5t-139.5 27.5q-76 0 -140.5 -27
t-111.5 -74t-73.5 -110.5t-26.5 -135.5t27 -135.5t74 -110.5t111.5 -74.5t139.5 -27.5q76 0 140.5 27t111.5 73.5t73.5 110.5t26.5 137zM501 162l-129 187h-3v-187h-72v434h109q72 0 110 -33t38 -91q0 -45 -28.5 -77.5t-79.5 -39.5l138 -193h-83zM478 469q0 35 -21.5 51.5
t-70.5 16.5h-17v-135h25q84 0 84 67z" />
    <glyph glyph-name="macron" unicode="&#xaf;" horiz-adv-x="487" 
d="M472 632h-378l13 80h379z" />
    <glyph glyph-name="degree" unicode="&#xb0;" horiz-adv-x="345" 
d="M365 639q0 -36 -12.5 -67t-35 -54t-53.5 -36t-69 -13q-28 0 -53 10t-43.5 27t-29 41t-10.5 52q0 36 12.5 67t35 54t53.5 36t68 13q29 0 53.5 -10t43.5 -27t29.5 -41t10.5 -52zM300 631q0 31 -21.5 54t-57.5 23q-21 0 -39.5 -8.5t-31.5 -23t-20.5 -32.5t-7.5 -38
q0 -32 22 -54.5t57 -22.5q21 0 39.5 8.5t31.5 22.5t20.5 32.5t7.5 38.5z" />
    <glyph glyph-name="plusminus" unicode="&#xb1;" horiz-adv-x="511" 
d="M448 328h-400l15 97h400z" />
    <glyph glyph-name="acute" unicode="&#xb4;" horiz-adv-x="299" 
d="M163 578h-91l112 168h134z" />
    <glyph glyph-name="mu" unicode="&#xb5;" horiz-adv-x="620" 
d="M642 493l-15 -97h-93l-63 -396h-114l63 396h-198l-63 -396h-114l63 396h-59l16 97h58l22 136q15 96 73.5 151.5t163.5 55.5q108 0 156 -55.5t34 -147.5l-23 -140h93zM457 631q8 50 -12.5 79t-70.5 29q-48 0 -77.5 -27.5t-37.5 -79.5l-22 -139h199z" />
    <glyph glyph-name="paragraph" unicode="&#xb6;" horiz-adv-x="567" 
d="M431 0h-75l107 679h-90l-108 -679h-74l47 304q-99 6 -145.5 57t-46.5 145q0 51 21 96t58.5 79t90 53.5t115.5 19.5h220z" />
    <glyph glyph-name="periodcentered" unicode="&#xb7;" horiz-adv-x="261" 
d="M199 386q0 -15 -6.5 -29t-17 -25t-25 -17.5t-29.5 -6.5q-26 0 -43 16.5t-17 42.5q0 15 6.5 29.5t18 25t26 17t29.5 6.5q27 0 42.5 -17.5t15.5 -41.5z" />
    <glyph glyph-name="periodcentered" unicode="&#x2219;" horiz-adv-x="261" 
d="M199 386q0 -15 -6.5 -29t-17 -25t-25 -17.5t-29.5 -6.5q-26 0 -43 16.5t-17 42.5q0 15 6.5 29.5t18 25t26 17t29.5 6.5q27 0 42.5 -17.5t15.5 -41.5z" />
    <glyph glyph-name="cedilla" unicode="&#xb8;" horiz-adv-x="242" 
d="M-14 -216l-48 33l133 150l64 -46z" />
    <glyph glyph-name="ordmasculine" unicode="&#xba;" horiz-adv-x="375" 
d="M386 638q0 -37 -13 -69.5t-36.5 -56.5t-56 -38t-72.5 -14q-30 0 -55.5 10t-44.5 28t-30 42.5t-11 53.5q0 37 13 69.5t36 57t55.5 38.5t72.5 14q30 0 56 -10t45 -28t30 -43t11 -54zM313 630q0 32 -21.5 55t-55.5 23q-21 0 -39 -8.5t-30.5 -23t-20 -33.5t-7.5 -40
q0 -32 21.5 -55.5t55.5 -23.5q21 0 39 8.5t30.5 23t20 33.5t7.5 41z" />
    <glyph glyph-name="guillemotright" unicode="&#xbb;" horiz-adv-x="476" 
d="M258 43l-58 49l150 159l-99 159l72 48l127 -207zM73 43l-58 49l150 159l-98 159l72 48l127 -207z" />
    <glyph glyph-name="questiondown" unicode="&#xbf;" horiz-adv-x="498" 
d="M377 439q0 -16 -7 -30.5t-18.5 -26t-26.5 -18.5t-31 -7q-28 0 -44.5 18.5t-16.5 43.5q0 16 7 30.5t18 26t26.5 18.5t31.5 7q27 0 44 -16.5t17 -45.5zM180 -282q-50 0 -90.5 16t-69 43.5t-43.5 65.5t-15 82t17.5 86t50 76t78 57.5t101.5 29.5l15 96h116l-28 -177h-27
q-45 0 -82.5 -12.5t-64 -34.5t-41.5 -51.5t-15 -63.5q0 -51 28.5 -81.5t82.5 -30.5q43 0 74.5 20t48.5 49l97 -27q-23 -67 -84 -105t-149 -38z" />
    <glyph glyph-name="Agrave" unicode="&#xc0;" horiz-adv-x="732" 
d="M534 0l-44 189h-303l-105 -189h-128l433 766h88l188 -766h-129zM405 580h-2l-163 -293h230zM396 823l-117 168h134l75 -168h-92z" />
    <glyph glyph-name="Aacute" unicode="&#xc1;" horiz-adv-x="732" 
d="M534 0l-44 189h-303l-105 -189h-128l433 766h88l188 -766h-129zM405 580h-2l-163 -293h230zM479 823h-91l112 168h134z" />
    <glyph glyph-name="Acircumflex" unicode="&#xc2;" horiz-adv-x="732" 
d="M534 0l-44 189h-303l-105 -189h-128l433 766h88l188 -766h-129zM405 580h-2l-163 -293h230zM527 816l-68 104l-103 -104h-105l166 173h106l111 -173h-107z" />
    <glyph glyph-name="Atilde" unicode="&#xc3;" horiz-adv-x="732" 
d="M534 0l-44 189h-303l-105 -189h-128l433 766h88l188 -766h-129zM405 580h-2l-163 -293h230zM654 969q-11 -70 -46 -100.5t-90 -30.5q-17 0 -35 6.5t-36 14.5t-35.5 14.5t-32.5 6.5q-20 0 -31.5 -11t-14.5 -30h-78q11 69 47 99t90 30q19 0 37 -6.5t35 -14.5t33.5 -14.5
t32.5 -6.5q20 0 31.5 11.5t14.5 31.5h78v0z" />
    <glyph glyph-name="Adieresis" unicode="&#xc4;" horiz-adv-x="732" 
d="M534 0l-44 189h-303l-105 -189h-128l433 766h88l188 -766h-129zM405 580h-2l-163 -293h230zM639 911q0 -32 -22.5 -54t-52.5 -22q-23 0 -39 15.5t-16 40.5q0 15 6.5 29t17.5 24t25 16t29 6q23 0 37.5 -16t14.5 -39zM400 911q0 -32 -23 -54t-53 -22q-23 0 -39 15.5
t-16 40.5q0 15 6.5 29t17.5 24t25 16t29 6q23 0 38 -16t15 -39z" />
    <glyph glyph-name="Aring" unicode="&#xc5;" horiz-adv-x="732" 
d="M534 0l-44 189h-303l-105 -189h-128l426 754q-21 9 -34.5 29.5t-13.5 46.5q0 25 8.5 47t24 38t37.5 25.5t49 9.5q20 0 37.5 -7t30.5 -19.5t20.5 -29t7.5 -35.5q0 -37 -19.5 -65.5t-49.5 -39.5l185 -754h-129zM486 852q0 17 -11.5 30t-29.5 13q-23 0 -38 -17t-15 -41
q0 -17 11.5 -30t28.5 -13q23 0 38.5 17t15.5 41zM405 580h-2l-163 -293h230z" />
    <glyph glyph-name="AE" unicode="&#xc6;" horiz-adv-x="1074" 
d="M1057 648h-273l-32 -202h262l-15 -102h-262l-39 -239h272l-16 -105h-396l29 189h-297l-179 -189h-153l700 754h415zM653 591l-274 -304h223l53 304h-2z" />
    <glyph glyph-name="Ccedilla" unicode="&#xc7;" horiz-adv-x="694" 
d="M674 577l-3 -1q-36 39 -82.5 59.5t-111.5 20.5q-66 0 -125 -26t-103 -69.5t-69.5 -101.5t-25.5 -122q0 -53 18 -97t49.5 -76t74 -49.5t91.5 -17.5q57 0 118.5 22.5t105.5 64.5l1 -1l-23 -137q-108 -61 -226 -61q-72 0 -133 25.5t-106 70t-70.5 105.5t-25.5 133
q0 100 38 183t100.5 142t143.5 92t168 33q72 0 125 -16.5t95 -48.5zM285 -231l-49 33l134 150l64 -46z" />
    <glyph glyph-name="Egrave" unicode="&#xc8;" horiz-adv-x="530" 
d="M512 648h-273l-31 -202h262l-16 -102h-262l-39 -239h273l-17 -105h-394l119 754h394zM316 808l-117 168h134l75 -168h-92z" />
    <glyph glyph-name="Eacute" unicode="&#xc9;" horiz-adv-x="530" 
d="M512 648h-273l-31 -202h262l-16 -102h-262l-39 -239h273l-17 -105h-394l119 754h394zM368 808h-91l112 168h135z" />
    <glyph glyph-name="Ecircumflex" unicode="&#xca;" horiz-adv-x="530" 
d="M512 648h-273l-31 -202h262l-16 -102h-262l-39 -239h273l-17 -105h-394l119 754h394zM419 808l-68 105l-103 -105h-106l167 173h106l111 -173h-107z" />
    <glyph glyph-name="Edieresis" unicode="&#xcb;" horiz-adv-x="530" 
d="M512 648h-273l-31 -202h262l-16 -102h-262l-39 -239h273l-17 -105h-394l119 754h394zM533 903q0 -32 -23 -53.5t-53 -21.5q-23 0 -39 15t-16 40q0 15 6.5 29t17.5 24t25 16t29 6q23 0 38 -16t15 -39zM293 903q0 -32 -23 -53.5t-53 -21.5q-23 0 -39 15t-16 40q0 15 6.5 29
t17.5 24t25 16t29 6q23 0 38 -16t15 -39z" />
    <glyph glyph-name="Igrave" unicode="&#xcc;" horiz-adv-x="268" 
d="M137 0h-122l119 754h123zM174 808l-117 168h134l75 -168h-92z" />
    <glyph glyph-name="Iacute" unicode="&#xcd;" horiz-adv-x="268" 
d="M137 0h-122l119 754h123zM233 808h-91l112 168h134z" />
    <glyph glyph-name="Icircumflex" unicode="&#xce;" horiz-adv-x="268" 
d="M137 0h-122l119 754h123zM292 808l-68 105l-103 -105h-106l167 173h106l111 -173h-107z" />
    <glyph glyph-name="Idieresis" unicode="&#xcf;" horiz-adv-x="268" 
d="M137 0h-122l119 754h123zM407 903q0 -32 -22.5 -53.5t-52.5 -21.5q-23 0 -39 15t-16 40q0 15 6.5 29t17.5 24t25 16t29 6q23 0 37.5 -16t14.5 -39zM168 903q0 -32 -23 -53.5t-53 -21.5q-23 0 -39 15t-16 40q0 15 6.5 29t17.5 24t25 16t29 6q23 0 38 -16t15 -39z" />
    <glyph glyph-name="Eth" unicode="&#xd0;" horiz-adv-x="709" 
d="M678 438q0 -91 -32 -170.5t-89.5 -139t-138 -94t-177.5 -34.5h-226l52 327h-83l15 100h84l51 327h202q77 0 140 -24.5t108 -67t69.5 -100t24.5 -124.5zM557 426q0 49 -16 89.5t-46 70t-73 46t-97 16.5h-86l-35 -221h141l-16 -100h-140l-36 -222h95q68 0 124.5 24.5
t97.5 68t64 102t23 126.5z" />
    <glyph glyph-name="Ntilde" unicode="&#xd1;" horiz-adv-x="844" 
d="M717 -12h-82l-409 564h-2l-87 -552h-122l120 758h88l404 -562h2l88 558h121zM707 961q-11 -70 -46.5 -100t-90.5 -30q-17 0 -35 6.5t-36 14t-35.5 14t-32.5 6.5q-20 0 -31.5 -11t-14.5 -30h-77q11 69 47 99.5t90 30.5q19 0 37 -6.5t35 -15t33.5 -15t32.5 -6.5
q20 0 31.5 11.5t14.5 31.5h78v0z" />
    <glyph glyph-name="Ograve" unicode="&#xd2;" horiz-adv-x="856" 
d="M825 430q0 -94 -34.5 -175.5t-94.5 -141.5t-140.5 -94t-172.5 -34q-75 0 -140 25t-113 70t-75 107t-27 136q0 93 34 174.5t93.5 141.5t140.5 95t174 35q75 0 140 -25.5t113 -70.5t75 -107t27 -136zM700 419q0 53 -17 97.5t-48.5 76.5t-75.5 50t-99 18q-66 0 -122 -26
t-97 -71t-64.5 -104.5t-23.5 -125.5q0 -54 17 -98.5t48 -76.5t75.5 -49.5t99.5 -17.5q65 0 121.5 26t97.5 70.5t64.5 104t23.5 126.5zM427 820l-117 169h134l75 -169h-92z" />
    <glyph glyph-name="Oacute" unicode="&#xd3;" horiz-adv-x="856" 
d="M825 430q0 -94 -34.5 -175.5t-94.5 -141.5t-140.5 -94t-172.5 -34q-75 0 -140 25t-113 70t-75 107t-27 136q0 93 34 174.5t93.5 141.5t140.5 95t174 35q75 0 140 -25.5t113 -70.5t75 -107t27 -136zM700 419q0 53 -17 97.5t-48.5 76.5t-75.5 50t-99 18q-66 0 -122 -26
t-97 -71t-64.5 -104.5t-23.5 -125.5q0 -54 17 -98.5t48 -76.5t75.5 -49.5t99.5 -17.5q65 0 121.5 26t97.5 70.5t64.5 104t23.5 126.5zM529 820h-91l112 169h134z" />
    <glyph glyph-name="Ocircumflex" unicode="&#xd4;" horiz-adv-x="856" 
d="M575 816l-68 104l-103 -104h-106l167 173h106l111 -173h-107zM824 430q0 -94 -34.5 -175.5t-94.5 -141.5t-140.5 -94t-172.5 -34q-75 0 -140 25t-112.5 70t-74.5 107t-27 136q0 93 34 174.5t93.5 141.5t140.5 95t174 35q75 0 140 -25.5t112.5 -70.5t74.5 -107t27 -136z
M699 419q0 53 -17 97.5t-48.5 76.5t-75.5 50t-99 18q-66 0 -122 -26t-97 -71t-64.5 -104.5t-23.5 -125.5q0 -54 17 -98.5t48.5 -76.5t76 -49.5t99.5 -17.5q65 0 121 26t97 70.5t64.5 104t23.5 126.5z" />
    <glyph glyph-name="Otilde" unicode="&#xd5;" horiz-adv-x="856" 
d="M825 430q0 -94 -34.5 -175.5t-94.5 -141.5t-140.5 -94t-172.5 -34q-75 0 -140 25t-113 70t-75 107t-27 136q0 93 34 174.5t93.5 141.5t140.5 95t174 35q75 0 140 -25.5t113 -70.5t75 -107t27 -136zM700 419q0 53 -17 97.5t-48.5 76.5t-75.5 50t-99 18q-66 0 -122 -26
t-97 -71t-64.5 -104.5t-23.5 -125.5q0 -54 17 -98.5t48 -76.5t75.5 -49.5t99.5 -17.5q65 0 121.5 26t97.5 70.5t64.5 104t23.5 126.5zM691 969q-11 -70 -46 -100.5t-90 -30.5q-17 0 -35 6.5t-36 14.5t-35.5 14.5t-32.5 6.5q-20 0 -31.5 -11t-14.5 -30h-78q11 69 47 99t90 30
q19 0 37 -6.5t35 -14.5t33.5 -14.5t32.5 -6.5q20 0 31.5 11.5t14.5 31.5h78v0z" />
    <glyph glyph-name="Odieresis" unicode="&#xd6;" horiz-adv-x="856" 
d="M825 430q0 -94 -34.5 -175.5t-94.5 -141.5t-140.5 -94t-172.5 -34q-75 0 -140 25t-113 70t-75 107t-27 136q0 93 34 174.5t93.5 141.5t140.5 95t174 35q75 0 140 -25.5t113 -70.5t75 -107t27 -136zM700 419q0 53 -17 97.5t-48.5 76.5t-75.5 50t-99 18q-66 0 -122 -26
t-97 -71t-64.5 -104.5t-23.5 -125.5q0 -54 17 -98.5t48 -76.5t75.5 -49.5t99.5 -17.5q65 0 121.5 26t97.5 70.5t64.5 104t23.5 126.5zM691 911q0 -32 -23 -54t-53 -22q-23 0 -39 15.5t-16 40.5q0 15 6.5 29t17.5 24t25 16t29 6q23 0 38 -16t15 -39zM451 911q0 -32 -23 -54
t-53 -22q-23 0 -39 15.5t-16 40.5q0 15 6.5 29t17.5 24t25 16t29 6q23 0 38 -16t15 -39z" />
    <glyph glyph-name="multiply" unicode="&#xd7;" horiz-adv-x="645" 
d="M387 380l120 -142l-81 -69l-120 141l-162 -140l-59 69l163 141l-118 140l80 70l119 -141l163 141l59 -69z" />
    <glyph glyph-name="Oslash" unicode="&#xd8;" horiz-adv-x="856" 
d="M748 645q36 -42 56.5 -97t20.5 -118q0 -94 -34.5 -175.5t-94.5 -141.5t-140.5 -94t-172.5 -34q-66 0 -122.5 20t-101.5 56l-92 -88l-47 46l88 85q-37 43 -58.5 99t-21.5 120q0 93 34 174.5t93.5 141.5t140.5 95t174 35q66 0 124.5 -21t102.5 -59q8 8 24 23t32 31
q18 18 40 38l49 -48zM618 604q-29 27 -69 42t-89 15q-66 0 -122 -26t-97 -71t-64.5 -104.5t-23.5 -125.5q0 -41 10 -76t28 -64l427 410v0zM700 419q0 38 -9.5 72.5t-26.5 63.5l-426 -409q29 -26 68 -40t87 -14q65 0 121.5 26t97.5 70.5t64.5 104t23.5 126.5z" />
    <glyph glyph-name="Ugrave" unicode="&#xd9;" horiz-adv-x="712" 
d="M635 307q-25 -162 -106.5 -242t-232.5 -80q-61 0 -108.5 16.5t-80.5 46t-50.5 70t-17.5 87.5q0 26 3 50.5t8 53.5l70 445h122l-67 -424q-4 -26 -7.5 -53.5t-3.5 -51.5q0 -58 36.5 -95t110.5 -37q50 0 85 15t59 45t38.5 74t23.5 101l66 426h122zM388 808l-116 168h133
l75 -168h-92z" />
    <glyph glyph-name="Uacute" unicode="&#xda;" horiz-adv-x="712" 
d="M635 307q-25 -162 -106.5 -242t-232.5 -80q-61 0 -108.5 16.5t-80.5 46t-50.5 70t-17.5 87.5q0 26 3 50.5t8 53.5l70 445h122l-67 -424q-4 -26 -7.5 -53.5t-3.5 -51.5q0 -58 36.5 -95t110.5 -37q50 0 85 15t59 45t38.5 74t23.5 101l66 426h122zM430 808h-91l113 168h134z
" />
    <glyph glyph-name="Ucircumflex" unicode="&#xdb;" horiz-adv-x="712" 
d="M635 307q-25 -162 -106.5 -242t-232.5 -80q-61 0 -108.5 16.5t-80.5 46t-50.5 70t-17.5 87.5q0 26 3 50.5t8 53.5l70 445h122l-67 -424q-4 -26 -7.5 -53.5t-3.5 -51.5q0 -58 36.5 -95t110.5 -37q50 0 85 15t59 45t38.5 74t23.5 101l66 426h122zM497 808l-68 105
l-103 -105h-105l166 173h106l111 -173h-107z" />
    <glyph glyph-name="Udieresis" unicode="&#xdc;" horiz-adv-x="712" 
d="M635 307q-25 -162 -106.5 -242t-232.5 -80q-61 0 -108.5 16.5t-80.5 46t-50.5 70t-17.5 87.5q0 26 3 50.5t8 53.5l70 445h122l-67 -424q-4 -26 -7.5 -53.5t-3.5 -51.5q0 -58 36.5 -95t110.5 -37q50 0 85 15t59 45t38.5 74t23.5 101l66 426h122zM609 903
q0 -32 -22.5 -53.5t-52.5 -21.5q-23 0 -39 15t-16 40q0 15 6.5 29t17.5 24t25 16t29 6q23 0 37.5 -16t14.5 -39zM370 903q0 -32 -23 -53.5t-53 -21.5q-23 0 -39 15t-16 40q0 15 6.5 29t17.5 24t25 16t29 6q23 0 38 -16t15 -39z" />
    <glyph glyph-name="Yacute" unicode="&#xdd;" horiz-adv-x="655" 
d="M376 310l-49 -310h-122l49 310l-194 444h139l131 -326h2l233 326h145zM421 808h-92l113 168h134z" />
    <glyph glyph-name="Thorn" unicode="&#xde;" horiz-adv-x="580" 
d="M548 411q0 -56 -19.5 -103.5t-56 -82.5t-89 -54.5t-118.5 -19.5h-104l-24 -151h-122l119 754h121l-23 -152h89q53 0 95 -14t71.5 -39t45 -60.5t15.5 -77.5zM420 396q0 50 -32.5 77t-102.5 27h-69l-39 -248h63q90 0 135 37t45 107z" />
    <glyph glyph-name="germandbls" unicode="&#xdf;" horiz-adv-x="543" 
d="M545 669q0 -55 -27.5 -104t-95.5 -101q-36 -28 -51 -47t-15 -35q0 -20 12 -34t29.5 -25.5t38.5 -24t38.5 -30.5t29.5 -43.5t12 -63.5q0 -36 -15 -67.5t-42.5 -55.5t-65.5 -37.5t-85 -13.5q-35 0 -62 5.5t-51 19.5l40 85q37 -23 78 -23q43 0 67 22t24 53q0 23 -11.5 38
t-29 27t-37.5 23.5t-37.5 27.5t-29 40t-11.5 61q0 27 16 59.5t58 66.5q33 27 54.5 48t34.5 40t18 37.5t5 39.5q0 38 -23 60t-64 22q-51 0 -82 -32.5t-42 -107.5l-95 -599h-114l99 620q17 108 80.5 163.5t171.5 55.5q42 0 75 -12.5t56.5 -35t36 -53.5t12.5 -69z" />
    <glyph glyph-name="agrave" unicode="&#xe0;" horiz-adv-x="604" 
d="M515 0h-113l9 66h-2q-29 -36 -74 -57.5t-99 -21.5q-43 0 -81 15.5t-66.5 44.5t-45 69.5t-16.5 91.5q0 61 22 115.5t61 95t91.5 64.5t113.5 24q51 0 90 -21t62 -59h3l10 66h114zM449 279q0 58 -36.5 94t-98.5 36q-38 0 -70 -16t-55.5 -42.5t-37 -60.5t-13.5 -70
q0 -66 37.5 -101t96.5 -35q39 0 71.5 16t56 43t36.5 62t13 74zM316 578l-117 168h133l76 -168h-92z" />
    <glyph glyph-name="aacute" unicode="&#xe1;" horiz-adv-x="604" 
d="M515 0h-113l9 66h-2q-29 -36 -74 -57.5t-99 -21.5q-43 0 -81 15.5t-66.5 44.5t-45 69.5t-16.5 91.5q0 61 22 115.5t61 95t91.5 64.5t113.5 24q51 0 90 -21t62 -59h3l10 66h114zM449 279q0 58 -36.5 94t-98.5 36q-38 0 -70 -16t-55.5 -42.5t-37 -60.5t-13.5 -70
q0 -66 37.5 -101t96.5 -35q39 0 71.5 16t56 43t36.5 62t13 74zM373 578h-91l112 168h134z" />
    <glyph glyph-name="acircumflex" unicode="&#xe2;" horiz-adv-x="604" 
d="M515 0h-113l9 66h-2q-29 -36 -74 -57.5t-99 -21.5q-43 0 -81 15.5t-66.5 44.5t-45 69.5t-16.5 91.5q0 61 22 115.5t61 95t91.5 64.5t113.5 24q51 0 90 -21t62 -59h3l10 66h114zM449 279q0 58 -36.5 94t-98.5 36q-38 0 -70 -16t-55.5 -42.5t-37 -60.5t-13.5 -70
q0 -66 37.5 -101t96.5 -35q39 0 71.5 16t56 43t36.5 62t13 74zM443 578l-68 104l-103 -104h-106l167 173h106l110 -173h-106z" />
    <glyph glyph-name="atilde" unicode="&#xe3;" horiz-adv-x="604" 
d="M515 0h-113l9 66h-2q-29 -36 -74 -57.5t-99 -21.5q-43 0 -81 15.5t-66.5 44.5t-45 69.5t-16.5 91.5q0 61 22 115.5t61 95t91.5 64.5t113.5 24q51 0 90 -21t62 -59h3l10 66h114zM449 279q0 58 -36.5 94t-98.5 36q-38 0 -70 -16t-55.5 -42.5t-37 -60.5t-13.5 -70
q0 -66 37.5 -101t96.5 -35q39 0 71.5 16t56 43t36.5 62t13 74zM568 731q-11 -70 -46 -100.5t-90 -30.5q-17 0 -35 6.5t-36 14.5t-35.5 14.5t-32.5 6.5q-20 0 -31.5 -11t-14.5 -30h-77q11 69 47 99.5t90 30.5q19 0 37 -6.5t35 -15t33.5 -15t32.5 -6.5q20 0 31.5 11.5
t14.5 31.5h77v0z" />
    <glyph glyph-name="adieresis" unicode="&#xe4;" horiz-adv-x="604" 
d="M515 0h-113l9 66h-2q-29 -36 -74 -57.5t-99 -21.5q-43 0 -81 15.5t-66.5 44.5t-45 69.5t-16.5 91.5q0 61 22 115.5t61 95t91.5 64.5t113.5 24q51 0 90 -21t62 -59h3l10 66h114zM449 279q0 58 -36.5 94t-98.5 36q-38 0 -70 -16t-55.5 -42.5t-37 -60.5t-13.5 -70
q0 -66 37.5 -101t96.5 -35q39 0 71.5 16t56 43t36.5 62t13 74zM556 673q0 -32 -22.5 -53.5t-52.5 -21.5q-23 0 -39 15t-16 40q0 15 6.5 29t17.5 24t25 16t29 6q23 0 37.5 -16t14.5 -39zM317 673q0 -32 -23 -53.5t-53 -21.5q-23 0 -39 15t-16 40q0 15 6.5 29t17.5 24t25 16
t29 6q23 0 38 -16t15 -39z" />
    <glyph glyph-name="aring" unicode="&#xe5;" horiz-adv-x="604" 
d="M515 0h-113l9 66h-2q-29 -36 -74 -57.5t-99 -21.5q-43 0 -81 15.5t-66.5 44.5t-45 69.5t-16.5 91.5q0 61 22 115.5t61 95t91.5 64.5t113.5 24q51 0 90 -21t62 -59h3l10 66h114zM449 279q0 58 -36.5 94t-98.5 36q-38 0 -70 -16t-55.5 -42.5t-37 -60.5t-13.5 -70
q0 -66 37.5 -101t96.5 -35q39 0 71.5 16t56 43t36.5 62t13 74zM492 677q0 -25 -9 -46.5t-24.5 -38t-37.5 -26t-49 -9.5q-41 0 -68.5 26t-27.5 65q0 25 8.5 46.5t24 37.5t37.5 25.5t49 9.5q41 0 69 -25.5t28 -64.5zM431 670q0 17 -11.5 30t-29.5 13q-23 0 -38 -17.5
t-15 -40.5q0 -18 11.5 -30.5t28.5 -12.5q23 0 38.5 17t15.5 41z" />
    <glyph glyph-name="ae" unicode="&#xe6;" horiz-adv-x="934" 
d="M909 290q0 -15 -1.5 -31t-3.5 -30h-398q-3 -35 6.5 -63.5t28.5 -48.5t46 -30.5t58 -10.5q45 0 75.5 16.5t59.5 46.5l99 -13q-42 -67 -102.5 -103t-145.5 -36q-43 0 -75.5 8t-57 23t-42 36t-32.5 46h-4q-35 -58 -92 -85.5t-122 -27.5q-36 0 -69.5 10t-59.5 28t-42 44
t-16 59q0 45 19 79.5t50.5 57.5t73 35t85.5 12q42 0 77 -11.5t60 -31.5h3q0 1 1 7.5t2 14t2 14t1 7.5q5 53 -24.5 79.5t-91.5 26.5q-43 0 -83.5 -10t-80.5 -26l14 93q41 15 82 23.5t92 8.5q65 0 111 -24t62 -74h2q37 45 91.5 71.5t114.5 26.5q51 0 93 -16.5t71.5 -46t46 -69
t16.5 -85.5zM802 297q-3 57 -36.5 90.5t-89.5 33.5q-60 0 -101.5 -33.5t-57.5 -90.5h285v0zM359 166q0 34 -26 54t-74 20q-24 0 -47 -6.5t-41.5 -19t-30 -30.5t-11.5 -41q0 -37 29.5 -55.5t74.5 -18.5q21 0 43 7t40.5 20t30.5 30.5t12 39.5z" />
    <glyph glyph-name="ccedilla" unicode="&#xe7;" horiz-adv-x="479" 
d="M457 364q-26 23 -58 36t-81 13q-34 0 -67 -14t-58.5 -39.5t-41 -60.5t-15.5 -77q0 -67 41 -105t107 -38q38 0 73.5 14t65.5 38l-18 -101q-37 -23 -75.5 -33t-77.5 -10q-48 0 -89.5 16t-71.5 45t-47 70t-17 90q0 59 22 113t62 95.5t96.5 66t124.5 24.5q43 0 80 -12t63 -31
zM185 -226l-49 33l135 150l63 -46z" />
    <glyph glyph-name="egrave" unicode="&#xe8;" horiz-adv-x="569" 
d="M544 290q0 -15 -2 -31t-4 -30h-397q-3 -35 6.5 -63.5t28.5 -48.5t45.5 -30.5t57.5 -10.5q45 0 76 16.5t60 46.5l99 -13q-42 -67 -102.5 -103t-145.5 -36q-48 0 -91.5 16t-76.5 45.5t-52 70.5t-19 90q0 60 19.5 114t56.5 95t91 65t123 24q51 0 92.5 -16.5t71.5 -46
t46.5 -69t16.5 -85.5zM436 297q-3 57 -36 90.5t-90 33.5q-60 0 -101 -33.5t-57 -90.5h284v0zM287 578l-117 168h133l75 -168h-91z" />
    <glyph glyph-name="eacute" unicode="&#xe9;" horiz-adv-x="569" 
d="M544 290q0 -15 -2 -31t-4 -30h-397q-3 -35 6.5 -63.5t28.5 -48.5t45.5 -30.5t57.5 -10.5q45 0 76 16.5t60 46.5l99 -13q-42 -67 -102.5 -103t-145.5 -36q-48 0 -91.5 16t-76.5 45.5t-52 70.5t-19 90q0 60 19.5 114t56.5 95t91 65t123 24q51 0 92.5 -16.5t71.5 -46
t46.5 -69t16.5 -85.5zM436 297q-3 57 -36 90.5t-90 33.5q-60 0 -101 -33.5t-57 -90.5h284v0zM378 578h-91l112 168h134z" />
    <glyph glyph-name="ecircumflex" unicode="&#xea;" horiz-adv-x="569" 
d="M544 290q0 -15 -2 -31t-4 -30h-397q-3 -35 6.5 -63.5t28.5 -48.5t45.5 -30.5t57.5 -10.5q45 0 76 16.5t60 46.5l99 -13q-42 -67 -102.5 -103t-145.5 -36q-48 0 -91.5 16t-76.5 45.5t-52 70.5t-19 90q0 60 19.5 114t56.5 95t91 65t123 24q51 0 92.5 -16.5t71.5 -46
t46.5 -69t16.5 -85.5zM436 297q-3 57 -36 90.5t-90 33.5q-60 0 -101 -33.5t-57 -90.5h284v0zM418 578l-69 104l-103 -104h-105l167 173h105l111 -173h-106z" />
    <glyph glyph-name="edieresis" unicode="&#xeb;" horiz-adv-x="569" 
d="M544 290q0 -15 -2 -31t-4 -30h-397q-3 -35 6.5 -63.5t28.5 -48.5t45.5 -30.5t57.5 -10.5q45 0 76 16.5t60 46.5l99 -13q-42 -67 -102.5 -103t-145.5 -36q-48 0 -91.5 16t-76.5 45.5t-52 70.5t-19 90q0 60 19.5 114t56.5 95t91 65t123 24q51 0 92.5 -16.5t71.5 -46
t46.5 -69t16.5 -85.5zM436 297q-3 57 -36 90.5t-90 33.5q-60 0 -101 -33.5t-57 -90.5h284v0zM529 673q0 -32 -23 -53.5t-53 -21.5q-23 0 -39 15t-16 40q0 15 6.5 29t17.5 24t25 16t29 6q23 0 38 -16t15 -39zM289 673q0 -32 -23 -53.5t-53 -21.5q-23 0 -39 15t-16 40
q0 15 6.5 29t17.5 24t25 16t29 6q23 0 38 -16t15 -39z" />
    <glyph glyph-name="igrave" unicode="&#xec;" 
d="M142 0h-114l78 494h114zM138 578l-117 168h134l75 -168h-92z" />
    <glyph glyph-name="iacute" unicode="&#xed;" 
d="M142 0h-114l78 494h114zM204 578h-91l112 168h134z" />
    <glyph glyph-name="icircumflex" unicode="&#xee;" 
d="M142 0h-114l78 494h114zM266 578l-69 104l-103 -104h-104l166 173h105l111 -173h-106z" />
    <glyph glyph-name="idieresis" unicode="&#xef;" 
d="M142 0h-114l78 494h114zM375 673q0 -32 -23 -53.5t-53 -21.5q-23 0 -39 15t-16 40q0 15 6.5 29t17.5 24t25 16t29 6q23 0 38 -16t15 -39zM135 673q0 -32 -22.5 -53.5t-52.5 -21.5q-23 0 -39 15t-16 40q0 31 23.5 53t53.5 22q23 0 38 -16t15 -39z" />
    <glyph glyph-name="ntilde" unicode="&#xf1;" horiz-adv-x="558" 
d="M465 0h-114l43 270q5 33 5.5 59.5t-7 45t-25 28.5t-48.5 10q-55 0 -93 -42.5t-50 -121.5l-39 -249h-114l78 493h114l-11 -70h3q31 42 73.5 63t93.5 21q47 0 77 -15t46.5 -42t19.5 -65t-5 -85zM538 731q-11 -70 -46 -100.5t-90 -30.5q-17 0 -35 6.5t-36 14.5t-35.5 14.5
t-32.5 6.5q-20 0 -31.5 -11t-14.5 -30h-78q11 69 47.5 99.5t90.5 30.5q19 0 37 -6.5t34.5 -15t33 -15t32.5 -6.5q20 0 31.5 11.5t14.5 31.5h78v0z" />
    <glyph glyph-name="ograve" unicode="&#xf2;" horiz-adv-x="583" 
d="M559 282q0 -62 -21.5 -116t-60.5 -93.5t-93.5 -62.5t-120.5 -23q-50 0 -93 16.5t-75 46.5t-50 71t-18 89q0 62 21 116.5t60 94.5t93 63t120 23q50 0 93.5 -17t75.5 -47t50.5 -71t18.5 -90zM448 269q0 29 -10 54t-28 44.5t-43.5 30.5t-55.5 11q-38 0 -70 -15t-55 -41
t-36 -59.5t-13 -71.5q0 -28 10 -53.5t28 -44t43.5 -29.5t55.5 -11q37 0 69 15t55 40t36.5 59t13.5 71zM284 578l-117 168h134l75 -168h-92z" />
    <glyph glyph-name="oacute" unicode="&#xf3;" horiz-adv-x="583" 
d="M559 282q0 -62 -21.5 -116t-60.5 -93.5t-93.5 -62.5t-120.5 -23q-50 0 -93 16.5t-75 46.5t-50 71t-18 89q0 62 21 116.5t60 94.5t93 63t120 23q50 0 93.5 -17t75.5 -47t50.5 -71t18.5 -90zM448 269q0 29 -10 54t-28 44.5t-43.5 30.5t-55.5 11q-38 0 -70 -15t-55 -41
t-36 -59.5t-13 -71.5q0 -28 10 -53.5t28 -44t43.5 -29.5t55.5 -11q37 0 69 15t55 40t36.5 59t13.5 71zM381 578h-91l112 168h134z" />
    <glyph glyph-name="ocircumflex" unicode="&#xf4;" horiz-adv-x="583" 
d="M559 282q0 -62 -21.5 -116t-60.5 -93.5t-93.5 -62.5t-120.5 -23q-50 0 -93 16.5t-75 46.5t-50 71t-18 89q0 62 21 116.5t60 94.5t93 63t120 23q50 0 93.5 -17t75.5 -47t50.5 -71t18.5 -90zM448 269q0 29 -10 54t-28 44.5t-43.5 30.5t-55.5 11q-38 0 -70 -15t-55 -41
t-36 -59.5t-13 -71.5q0 -28 10 -53.5t28 -44t43.5 -29.5t55.5 -11q37 0 69 15t55 40t36.5 59t13.5 71zM430 578l-69 104l-103 -104h-105l167 173h105l111 -173h-106z" />
    <glyph glyph-name="otilde" unicode="&#xf5;" horiz-adv-x="583" 
d="M559 282q0 -62 -21.5 -116t-60.5 -93.5t-93.5 -62.5t-120.5 -23q-50 0 -93 16.5t-75 46.5t-50 71t-18 89q0 62 21 116.5t60 94.5t93 63t120 23q50 0 93.5 -17t75.5 -47t50.5 -71t18.5 -90zM448 269q0 29 -10 54t-28 44.5t-43.5 30.5t-55.5 11q-38 0 -70 -15t-55 -41
t-36 -59.5t-13 -71.5q0 -28 10 -53.5t28 -44t43.5 -29.5t55.5 -11q37 0 69 15t55 40t36.5 59t13.5 71zM555 731q-11 -70 -46.5 -100.5t-90.5 -30.5q-17 0 -35 6.5t-36 14.5t-35.5 14.5t-32.5 6.5q-20 0 -31.5 -11t-14.5 -30h-77q11 69 47 99.5t90 30.5q19 0 37 -6.5t35 -15
t33.5 -15t32.5 -6.5q20 0 31.5 11.5t14.5 31.5h78v0z" />
    <glyph glyph-name="odieresis" unicode="&#xf6;" horiz-adv-x="583" 
d="M559 282q0 -62 -21.5 -116t-60.5 -93.5t-93.5 -62.5t-120.5 -23q-50 0 -93 16.5t-75 46.5t-50 71t-18 89q0 62 21 116.5t60 94.5t93 63t120 23q50 0 93.5 -17t75.5 -47t50.5 -71t18.5 -90zM448 269q0 29 -10 54t-28 44.5t-43.5 30.5t-55.5 11q-38 0 -70 -15t-55 -41
t-36 -59.5t-13 -71.5q0 -28 10 -53.5t28 -44t43.5 -29.5t55.5 -11q37 0 69 15t55 40t36.5 59t13.5 71zM535 673q0 -32 -22.5 -53.5t-52.5 -21.5q-23 0 -39 15t-16 40q0 15 6.5 29t17.5 24t25 16t29 6q23 0 37.5 -16t14.5 -39zM296 673q0 -32 -23 -53.5t-53 -21.5
q-23 0 -39 15t-16 40q0 15 6.5 29t17.5 24t25 16t29 6q23 0 38 -16t15 -39z" />
    <glyph glyph-name="divide" unicode="&#xf7;" horiz-adv-x="645" 
d="M409 586q0 -13 -5.5 -25t-15 -21.5t-21.5 -15t-26 -5.5q-23 0 -37.5 14t-14.5 39q0 13 6 25.5t15.5 22t22 15.5t25.5 6q23 0 37 -16t14 -39zM560 330h-498l16 98h497zM347 186q0 -13 -5.5 -25.5t-15 -22t-21.5 -15t-26 -5.5q-23 0 -37.5 14t-14.5 38q0 13 6 25.5
t15.5 22.5t22 16t25.5 6q23 0 37 -15.5t14 -38.5z" />
    <glyph glyph-name="oslash" unicode="&#xf8;" horiz-adv-x="583" 
d="M581 472q-13 -12 -25 -23q-11 -10 -21.5 -19.5t-17.5 -16.5q20 -26 31 -59.5t11 -71.5q0 -62 -21.5 -116t-60.5 -93.5t-93.5 -62.5t-120.5 -23q-45 0 -85 13t-70 39l-72 -63l-34 38l69 62q-21 27 -32.5 61.5t-11.5 72.5q0 62 21 116.5t60 94.5t93 63t120 23q46 0 87 -15
t71 -41l67 60l35 -39v0zM400 376q-35 33 -89 33q-38 0 -70 -15t-55 -41t-36 -59.5t-13 -71.5q0 -37 17 -68l246 222v0zM448 269q0 17 -4 34t-11 31l-246 -220q17 -14 39 -22t48 -8q37 0 69 15t55 40t36.5 59t13.5 71z" />
    <glyph glyph-name="ugrave" unicode="&#xf9;" horiz-adv-x="560" 
d="M496 203q-17 -107 -76 -162.5t-173 -55.5q-59 0 -99.5 16t-64 45.5t-30.5 71.5t1 94l45 281h114l-44 -281q-11 -66 11.5 -99t83.5 -33q53 0 81 33.5t41 117.5l42 262h114zM298 578l-117 168h133l75 -168h-91z" />
    <glyph glyph-name="uacute" unicode="&#xfa;" horiz-adv-x="560" 
d="M496 203q-17 -107 -76 -162.5t-173 -55.5q-59 0 -99.5 16t-64 45.5t-30.5 71.5t1 94l45 281h114l-44 -281q-11 -66 11.5 -99t83.5 -33q53 0 81 33.5t41 117.5l42 262h114zM363 578h-91l112 168h134z" />
    <glyph glyph-name="ucircumflex" unicode="&#xfb;" horiz-adv-x="560" 
d="M496 203q-17 -107 -76 -162.5t-173 -55.5q-59 0 -99.5 16t-64 45.5t-30.5 71.5t1 94l45 281h114l-44 -281q-11 -66 11.5 -99t83.5 -33q53 0 81 33.5t41 117.5l42 262h114zM413 578l-68 104l-103 -104h-106l167 173h106l111 -173h-107z" />
    <glyph glyph-name="udieresis" unicode="&#xfc;" horiz-adv-x="560" 
d="M496 203q-17 -107 -76 -162.5t-173 -55.5q-59 0 -99.5 16t-64 45.5t-30.5 71.5t1 94l45 281h114l-44 -281q-11 -66 11.5 -99t83.5 -33q53 0 81 33.5t41 117.5l42 262h114zM529 673q0 -32 -22.5 -53.5t-52.5 -21.5q-23 0 -39 15t-16 40q0 31 23.5 53t53.5 22q23 0 38 -16
t15 -39zM290 673q0 -32 -23 -53.5t-53 -21.5q-23 0 -39 15t-16 40q0 15 6.5 29t17.5 24t25 16t29 6q23 0 38 -16t15 -39z" />
    <glyph glyph-name="yacute" unicode="&#xfd;" horiz-adv-x="571" 
d="M112 -266h-120l193 301l-161 458h126l113 -342h2l207 342h126zM362 578h-91l112 168h134z" />
    <glyph glyph-name="thorn" unicode="&#xfe;" horiz-adv-x="614" 
d="M590 288q0 -64 -21.5 -119t-60 -95.5t-91 -63.5t-115.5 -23q-48 0 -91 22t-63 58h-2l-53 -334h-113l170 1067h114l-60 -372h2q32 36 77 57.5t100 21.5q44 0 82 -16t65.5 -44.5t43.5 -69t16 -89.5zM478 272q0 60 -35 98.5t-97 38.5q-39 0 -72 -15.5t-56.5 -42t-36.5 -61
t-13 -73.5q0 -60 37 -96.5t95 -36.5q38 0 70.5 15.5t56.5 41.5t37.5 60t13.5 71z" />
    <glyph glyph-name="ydieresis" unicode="&#xff;" horiz-adv-x="571" 
d="M112 -266h-120l193 301l-161 458h126l113 -342h2l207 342h126zM525 673q0 -32 -22.5 -53.5t-52.5 -21.5q-23 0 -39 15t-16 40q0 31 23.5 53t53.5 22q23 0 38 -16t15 -39zM286 673q0 -32 -23 -53.5t-53 -21.5q-23 0 -39 15t-16 40q0 15 6.5 29t17.5 24t25 16t29 6
q23 0 38 -16t15 -39z" />
    <glyph glyph-name="notequal" horiz-adv-x="436" 
d="M370 328h-320l15 97h321z" />
    <glyph glyph-name="infinity" horiz-adv-x="163" 
d="M148 681l33 -33l-18 -18l-31 33l-13 -43l-24 5l13 44l-43 -12l-7 23l43 11l-32 33l18 18l31 -33l13 45l24 -8l-14 -44l44 13l7 -24z" />
    <glyph glyph-name="lessequal" horiz-adv-x="284" 
d="M358 794q-121 -126 -182.5 -258.5t-61.5 -263.5q0 -99 25 -182t78 -162l-82 -60q-58 71 -92 172t-34 227q0 84 21 165.5t58.5 157.5t89.5 144t113 124l67 -64v0z" />
    <glyph glyph-name="greaterequal" horiz-adv-x="294" 
d="M257 461q0 -85 -21 -167t-58.5 -158t-89 -143.5t-113.5 -124.5l-69 63q121 126 183 260.5t62 262.5q0 94 -22.5 178.5t-78.5 166.5l81 59q57 -71 91.5 -171.5t34.5 -225.5z" />
    <glyph glyph-name="partialdiff" horiz-adv-x="325" 
d="M152 -118h-222l15 95h115l126 793h-116l15 96h223z" />
    <glyph glyph-name="summation" horiz-adv-x="325" 
d="M358 770h-116l-126 -793h116l-15 -95h-222l155 984h223z" />
    <glyph glyph-name="product" horiz-adv-x="569" 
d="M458 637q6 47 -14 74.5t-68 27.5q-49 0 -79 -27.5t-38 -78.5l-22 -140h123l-15 -97h-123l-63 -396h-114l63 396h-59l16 97h58l23 138q14 96 73 151.5t164 55.5q54 0 92.5 -14.5t62 -41t32 -63.5t2.5 -82h-114zM459 -76q-16 -96 -68 -143t-133 -47q-18 0 -35.5 4t-28.5 9
l17 102q15 -7 27 -9.5t23 -2.5q34 0 56 22.5t32 82.5l87 552h113z" />
    <glyph glyph-name="pi" horiz-adv-x="833" 
d="M816 377q0 -81 -30 -152.5t-83 -125t-125.5 -84t-158.5 -30.5q-87 0 -160 31t-126 84t-83 125t-30 153t30 152t83 124.5t125.5 84t158.5 30.5t159 -30.5t126.5 -84t83.5 -125t30 -152.5zM770 377q0 72 -27 135t-74 110t-111.5 74.5t-139.5 27.5q-76 0 -140.5 -27
t-111.5 -74t-73.5 -110.5t-26.5 -135.5t27 -135.5t74 -110.5t111.5 -74.5t139.5 -27.5q76 0 140.5 27t111.5 73.5t73.5 110.5t26.5 137zM572 467q0 -57 -37 -93t-102 -36h-53v-176h-72v434h125q64 0 101.5 -36t37.5 -93zM499 467q0 33 -20 50.5t-65 17.5h-34v-136h34
q45 0 65 17.5t20 50.5z" />
    <glyph glyph-name="integral" horiz-adv-x="926" 
d="M953 493l-16 -97h-93l-62 -396h-113l62 396h-203l-62 -396h-114l62 396h-192l-63 -396h-114l62 396h-58l16 97h58l21 136q16 100 77 154t164 54q51 0 88.5 -15t60.5 -39q29 24 69 39t88 15q104 0 155 -53t37 -147l-23 -144h93zM769 635q7 45 -15.5 74.5t-70.5 29.5
t-79 -28t-39 -80l-21 -138h203zM462 672q-3 26 -25.5 46.5t-60.5 20.5q-42 0 -75.5 -25.5t-41.5 -82.5l-22 -138h193l21 137q2 10 5 21t6 21z" />
    <glyph glyph-name="Omega" horiz-adv-x="639" 
d="M702 725q-11 5 -23 9t-26 4q-36 0 -57.5 -23.5t-30.5 -80.5l-23 -141h123l-15 -97h-123l-62 -396h-114l63 396h-192l-63 -396h-114l62 396h-58l16 97h58l21 137q15 100 76 154t164 54q97 0 147 -47q26 24 59 35.5t71 11.5q14 0 30 -3t27 -9zM462 684q-8 23 -31 39t-55 16
q-43 0 -76 -25.5t-42 -82.5l-21 -138h192l25 152q2 22 8 39z" />
    <glyph glyph-name="radical" horiz-adv-x="879" 
d="M782 0h-113l100 635q7 45 -15.5 74.5t-70.5 29.5t-79 -28t-39 -80l-21 -138h123l-16 -97h-123l-62 -396h-114l62 396h-192l-63 -396h-114l62 396h-58l16 97h58l21 136q16 100 77 154t164 54q51 0 88.5 -15t60.5 -39q29 24 69 39t88 15q104 0 155 -53t37 -147zM462 672
q-3 26 -25.5 46.5t-60.5 20.5q-42 0 -75.5 -25.5t-41.5 -82.5l-22 -138h193l21 137q2 10 5 21t6 21z" />
    <glyph glyph-name="approxequal" horiz-adv-x="879" 
d="M765 636q7 47 -15 75t-70 28q-42 0 -75.5 -25.5t-42.5 -82.5l-22 -138h123l-16 -97h-123l-63 -396h-113l62 396h-193l-62 -396h-114l63 396h-59l16 97h58l23 137q15 100 75.5 154t163.5 54q51 0 88.5 -14.5t60.5 -38.5q29 24 69.5 38.5t88.5 14.5q110 0 157.5 -54.5
t33.5 -147.5h-114zM778 0h-113l78 493h114zM458 668q-2 31 -25 51t-61 20q-41 0 -75 -25.5t-42 -82.5l-22 -138h193l22 137q2 11 4.5 20t5.5 18z" />
    <glyph glyph-name="Delta" horiz-adv-x="325" 
d="M352 772q-42 0 -62.5 -22.5t-29.5 -80.5l-27 -173q-8 -54 -32 -81.5t-69 -38.5l-1 -3q42 -11 56.5 -39.5t6.5 -82.5l-28 -173q-9 -58 4.5 -80t55.5 -22l-16 -96q-90 0 -129.5 41t-25.5 129l29 184q6 40 -9.5 64.5t-47.5 24.5l17 102q32 0 55.5 24t28.5 64l29 184
q14 87 67 129t143 42z" />
    <glyph glyph-name="nonbreakingspace" horiz-adv-x="256" 
 />
    <glyph glyph-name="lozenge" horiz-adv-x="900" 
d="M343 345v-209h-72v209h-208v72h208v209h72v-209h209v-71h20v-107h1q13 21 39 21q42 0 42 -49v-80h-20v76q0 17 -6 26t-23 9q-16 0 -24.5 -12.5t-8.5 -31.5v-67h-21v214h-208zM817 195q0 -29 -17 -48t-44 -19q-31 0 -45 22h-1v-90h-22v196h22v-19h1q8 11 19.5 17t25.5 6
q28 0 44.5 -19t16.5 -46zM797 194q0 20 -12 33.5t-32 13.5t-32 -13t-12 -33t11 -35t33 -15q20 0 32 15t12 34z" />
    <glyph glyph-name="apple" horiz-adv-x="967" 
d="M101 0v750h767v-750h-767zM853 -104l-3 20l-10 -21h-2l-10 21l-3 -20h-6l6 34h1l13 -26l13 26h1l6 -34h-6zM806 -87q0 -8 -4.5 -13t-12.5 -5t-12.5 5t-4.5 12q0 8 5 13t13 5q7 0 11.5 -5t4.5 -12zM757 -102q-3 -3 -10 -3q-18 0 -18 17q0 8 5 13t13 5q7 0 11 -3l-2 -5
q-3 3 -9 3q-5 0 -8.5 -3.5t-3.5 -8.5q0 -13 13 -13q4 0 10 4zM689 -90v-14h-6v14l-14 19l6 1l11 -15l9 14h7zM650 -104v15h-16v-15h-6v33h6v-13h16v13h6v-33h-6zM612 -82q0 -12 -17 -12v-10h-6v33q14 2 18.5 -2t4.5 -9zM570 -104l-4 8h-14l-3 -8h-6l15 34h2l16 -34h-6z
M527 -104l-8 11h-5v-11h-6v33q14 2 18.5 -1.5t4.5 -8.5q0 -7 -7 -10l10 -13h-7zM491 -101q-6 -4 -13 -4q-8 0 -13 4.5t-5 12.5t5.5 13t13.5 5q6 0 12 -4l-2 -5q-4 4 -11 4q-12 0 -12 -13q0 -12 13 -12q2 0 6 2v7h-9v5h15v-15v0zM447 -87q0 -8 -4.5 -13t-12.5 -5t-12.5 5
t-4.5 12q0 8 5 13t13 5q7 0 11.5 -5t4.5 -12zM400 -82q0 -12 -17 -12v-10h-6v33q14 2 18.5 -2t4.5 -9zM351 -90v-14h-6v14l-14 19l6 1l11 -15l9 14h7zM323 -76h-12v-28h-6v28h-12v5h30v-5zM255 -105h-1l-11 23l-10 -23h-1l-12 34l6 1l7 -23l10 23h1l10 -23l7 22h6zM199 -105
h-1l-11 23l-10 -23h-1l-12 34l6 1l7 -23l10 23h1l10 -23l7 22h6zM143 -105h-1l-11 23l-10 -23h-1l-12 34l6 1l7 -23l10 23h1l10 -23l7 22h6zM716 -101q0 -4 -4 -4t-4 4t4 4t4 -4zM284 -101q0 -4 -4 -4t-4 4t4 4t4 -4zM559 691q0 5 -1 7q-2 -1 -17 -1t-18 1v-7q0 -3 -1 -5h2
q1 3 3 5q4 4 7 4t3 -3v-23q0 -3 -2 -5q-1 -1 -3 0v-2h17v2q-1 -1 -2 0q-3 3 -3 5v23q0 3 3 3q4 0 8 -4q2 -2 2 -5h2v5zM504 664q-1 -1 -3 0q-3 2 -3 5v21q0 4 3 5q2 1 3 0v2h-18v-1v-1q2 1 3 0q2 -2 2 -5v-9h-17v9q0 2 3 5q1 1 2 0v1v1h-17v-2q2 1 3 0q2 -2 2 -5v-21
q0 -2 -2 -4q-1 -1 -3 -1v-2h17v2q-1 0 -2 1q-3 3 -3 4v10h17v-10q0 -3 -2 -5q-1 -1 -3 0v-2h18v2zM439 664q-1 -1 -2 0q-3 3 -3 5v21q0 2 3 5q1 1 2 0v2h-29l-2 -10l2 -1q0 2 2 4q4 4 7 4h4q4 0 4 -3v-10h-4q-2 0 -5 3q-1 1 -1 2h-2v-13h2q0 1 1 3q2 3 5 3h4v-11q0 -3 -4 -3
h-4q-2 0 -4 1.5t-4 3.5t-2 4l-2 -1l2 -11h30v2v0zM827 624h-685v-6h685v6zM696 540q0 15 -11.5 26.5t-25.5 11.5q-7 0 -15 -5t-8 -17q0 -16 11.5 -27t25.5 -11q7 0 15 5t8 17zM589 537q0 12 -14 17q5 3 5 9q0 5 -5 10t-16 5q-13 0 -13 -11q0 -6 5 -6q4 0 4 3t-1.5 3.5
t-1.5 2.5q0 5 7 5q10 0 10 -12q0 -4 -2 -6q-16 2 -16 -6q0 -6 8 -6q6 0 11 5q6 -4 6 -15q0 -14 -12 -14t-12 9q0 3 3 3q1 0 2 -1t3 -1q4 0 4 5t-7 5q-9 0 -9 -10q0 -13 16 -13q13 0 19 5.5t6 13.5zM295 537q0 12 -14 17q5 3 5 9q0 5 -5 10t-16 5q-13 0 -13 -11q0 -6 5 -6
q4 0 4 3t-1.5 3.5t-1.5 2.5q0 5 7 5q10 0 10 -12q0 -4 -2 -6q-16 2 -16 -6q0 -6 8 -6q6 0 11 5q6 -4 6 -15q0 -14 -12 -14t-12 9q0 3 3 3q1 0 2 -1t3 -1q4 0 4 5t-7 5q-9 0 -9 -10q0 -13 16 -13q13 0 19 5.5t6 13.5zM820 522q-2 0 -4 1q-5 2 -6 7l-7 35q-1 5 3 7q2 1 4 1
l-1 3h-28l1 -3q2 0 4 -1q4 -2 5 -7l3 -15h-24l-3 15q-1 5 3 7q2 1 4 1l-1 3h-29l1 -3q2 0 4 -1t3.5 -2t2.5 -5l7 -35q1 -5 -3 -7q-2 -1 -4 -1l1 -3h29l-1 3q-2 0 -4 1q-5 2 -6 7l-3 16h24l3 -16q1 -5 -3 -7q-2 -1 -4 -1l1 -3h29l-1 3v0zM497 522q-2 0 -4 1q-5 2 -6 7l-7 35
q-1 5 3 7q2 1 4 1l-1 3h-45q1 -2 0.5 -4.5t-0.5 -5.5v-7h4q-1 4 1 7q4 6 12 6h4q5 0 6 -6l3 -16h-4q-3 0 -5 1.5t-4 3.5t-3 4h-3l5 -23h3q0 3 1 6q2 5 7 5h4l3 -17q1 -5 -3 -7q-2 -1 -4 -1l1 -3h29zM202 522q-2 0 -4 1q-5 2 -6 7l-7 35q-1 5 3 7q2 1 4 1l-1 3h-27
q-20 0 -20 -15q0 -6 5.5 -10t13.5 -5l-9 -16q-2 -5 -9 -7q-3 -1 -5 -1l1 -3h19l12 23q2 3 5 3l3 -15q1 -5 -3 -7q-2 -1 -4 -1l1 -3h29zM400 521q0 2 -3 5t-10 4q-4 3 -4.5 10.5t-2 16t-6 15t-16.5 6.5q-5 0 -9 -3.5t-4 -6.5q0 -5 5 -5q4 0 4 6t5 6t6.5 -5t2.5 -12t3.5 -14.5
t8.5 -13.5q-11 0 -14.5 -6.5t-8.5 -6.5t-5 4q0 2 1 2.5t1 2.5q0 5 -5 5t-5 -7q0 -5 5 -8.5t10 -3.5q7 0 10 2t5 4.5t4 4.5t6 2q4 -7 12 -7q4 0 4 3zM827 481h-685v-6h685v6zM827 440h-147v-62h36v28h11v-65h-14v-33h81v33h-14v65h11v-28h36v62zM648 440h-81v-34h11l-15 -23
l-15 23h10v34h-62v-34h12l37 -46v-19h-14v-33h81v33h-15v20l37 45h14v34zM458 341h-14v65h14v34h-96q-22 0 -34.5 -11.5t-12.5 -28.5t12.5 -28.5t34.5 -11.5h30v-19h-15v-33h81v33zM283 341h-14v65h14v34h-141v-62h41v28h33v-20h-24v-24h24v-21h-33v28h-41v-61h141v33z
M827 277h-685v-6h685v6zM728 192q0 15 -11.5 26.5t-25.5 11.5q-7 0 -15 -5t-8 -17q0 -16 11.5 -27t25.5 -11q7 0 15 5t8 17zM203 217q-3 5 -6.5 9t-11.5 4q-15 0 -14 -23q-3 10 -8 16.5t-13 6.5q-5 0 -8.5 -3t-3.5 -9l3 -1q0 6 8 6q10 0 15.5 -10.5t8.5 -22.5q3 -10 -1 -14
q-2 -2 -5 -1l1 -4h28l-1 4q-2 -1 -4 0q-3 2 -6 9q-5 17 -5 25q0 13 9 13q5 0 7.5 -2.5l4.5 -4.5l2 2v0zM822 174q-2 0 -4 1q-5 2 -6 7l-7 35q-1 5 3 7q2 1 4 1l-1 3h-45q1 -2 0.5 -4.5t-0.5 -5.5v-7h4q-1 4 1 7q4 6 12 6h4q5 0 6 -6l3 -16h-4q-4 0 -9 5q-2 2 -3 4h-3l5 -23
h3q0 3 1 6q2 5 7 5h4l3 -17q1 -5 -3 -7q-2 -1 -4 -1l1 -3h29zM620 228h-29l1 -3q2 0 4 -1q5 -2 6 -8l5 -21q2 -10 1 -15t-12 -5q-8 0 -13 6.5t-7 15.5l-4 19q-1 7 3 9q2 1 4 0v3h-24l1 -3q2 0 5 -1q5 -2 6 -8l4 -19q2 -8 8 -17.5t20 -9.5q17 0 19 8t0 16l-5 22q-1 7 3 9
q2 1 5 0zM522 174q-1 0 -3 1q-3 2 -6 9l-7 32q-1 6 3 8q2 1 5 1l-1 3h-14l-29 -42l-5 30q-1 6 3 8q2 1 4 1l-1 3h-21l1 -3q2 0 4 -1q4 -2 5 -8l8 -45l3 -1l30 44l6 -30q1 -7 -2 -9q-2 -1 -4 -1l1 -3h21l-1 3v0zM413 175q-2 -1 -4 0q-3 2 -6 9l-8 31q-3 9 8 10l-1 3h-30
q-9 0 -17 -5.5t-8 -16.5q0 -16 11 -25.5t24 -9.5h32zM306 174q-2 0 -4 1q-5 2 -6 7l-7 35q-1 5 3 7q2 1 4 1l-1 3h-27q-20 0 -20 -15q0 -6 5.5 -10t13.5 -5l-9 -16q-2 -5 -9 -7q-3 -1 -5 -1l1 -3h19l12 23q2 3 5 3l3 -15q1 -5 -3 -7q-2 -1 -4 -1l1 -3h29l-1 3v0zM827 133
h-685v-6h685v6zM694 48q-1 0 -3 1q-3 2 -3 4v20q0 3 3 4q2 1 3 2v2h-10l-24 -26v18q0 4 3 5q2 1 3 1v2h-15v-2q1 0 3 -1q3 -1 3 -5v-28h3l25 28v-20q0 -2 -2 -4q-1 -1 -3 -1v-2h14v2zM633 48q-1 -1 -2 0q-3 3 -3 5v21q0 2 3 5q1 1 2 0v2h-29l-2 -10l2 -1q0 2 2 4q4 4 7 4h4
q4 0 4 -3v-10h-4q-2 0 -5 3q-1 1 -1 2h-2v-13h2q0 1 1 3q2 3 5 3h4v-11q0 -3 -4 -3h-4q-3 0 -8 5q-2 2 -2 4l-2 -1l2 -11h30v2v0zM568 81v-2q1 0 2 -1t0 -4l-9 -19l-5 10l4 8q1 2 4 5q1 1 2 1v2h-26l1 -2q1 0 2 -1l2 -2l3 -3l3 -5l-7 -13l-8 18q-1 4 0 5t2 1v2h-13v-2
q1 0 2 -1l2 -2t2 -3l13 -27h1h1l8 16l9 -16h1l12 27l3 3l2 2t2 1v2h-15zM480 81h-15v-2q1 0 2 -1t-1 -4l-6 -9l-6 9q-1 3 0 4t3 1v2h-15v-2q1 0 3 -1q4 -2 5 -4l8 -12v-8q0 -3 -2 -5q-1 -1 -3 -1v-2h17v2q-1 0 -2 1q-3 3 -3 5v8l8 12q2 2 3 2.5t2 1.5t2 1v2zM425 64
q0 8 -5 13t-15 5t-15 -5t-5 -13t5 -13.5t15 -5.5t15 5.5t5 13.5zM364 48q-1 0 -2 1q-3 3 -3 4v20q0 2 3 5q1 1 2 1v2h-18q-13 0 -13 -9q0 -5 9 -9l-7 -10q-3 -3 -5 -4t-3 -1v-2h11l7 12q3 4 7 4v-9q0 -2 -2 -4q-1 -1 -3 -1v-2h17v2zM309 48q-1 0 -3 1q-3 2 -3 5v20q0 3 3 4
q2 1 3 1v2h-18v-2q1 0 3 -1q3 -1 3 -4v-9q-2 0 -4 2l-8 8l-1 3q1 1 2 1v2h-14v-2q1 0 3 -1q5 -2 5 -3l10 -9l-13 -13q-2 -2 -4 -3t-3 -2v-2h17v2q-1 0 -2 1q-2 2 0 4l8 8q2 2 4 2v-9q0 -3 -3 -5q-2 -1 -3 -1v-2h18v2zM606 -83q0 8 -11 7v-13q11 0 11 6zM525 -82q0 8 -11 6
v-12q11 -1 11 6zM394 -83q0 8 -11 7v-13q11 0 11 6zM559 -80l-5 -12h10zM800 -88q0 13 -11 13t-11 -12q0 -13 11 -13t11 12zM441 -88q0 13 -11 13t-11 -12q0 -13 11 -13t11 12zM171 548q-8 0 -11.5 5t-3.5 10q0 9 8 9t9 -5l3 -19h-5zM566 553q-3 -4 -7 -4t-4 2q0 3 4 3
q5 0 7 -1zM272 553q-3 -4 -7 -4t-4 2q0 3 4 3q5 0 7 -1zM684 535q0 -13 -11 -13q-9 0 -17 11.5t-8 26.5q0 14 11 14q9 0 17 -11.5t8 -27.5zM381 384q-13 0 -13 11t13 11h11v-22h-11zM275 200q-8 0 -11.5 5t-3.5 10q0 9 8 9t9 -5l3 -19h-5zM716 187q0 -13 -11 -13
q-9 0 -17 11.5t-8 26.5q0 14 11 14q9 0 17 -11.5t8 -27.5zM393 182q0 -7 -4 -7h-5q-11 0 -18.5 10t-7.5 22q0 17 14 17h6q3 -1 3.5 -1.5t2.5 -5.5l9 -35v0zM553 79q5 0 0 -9q-5 9 0 9zM349 64q-8 0 -8 8q0 6 7 6q4 0 4 -4v-10h-3zM417 64q0 -7 -2.5 -12t-9.5 -5q-6 0 -9 5
t-3 12q0 16 12 16t12 -16z" />
    </font>
</defs>
</svg>
